<svg id="svg" version="1.1" xmlns="http://www.w3.org/2000/svg" xmlns:xlink="http://www.w3.org/1999/xlink" width="400" height="397.12746858168765" viewBox="0, 0, 400,397.12746858168765"><g id="svgg"><path id="path0" d="M171.517 76.400 C 171.436 76.543,171.165 77.307,170.916 78.097 C 170.667 78.887,170.341 79.695,170.192 79.892 C 170.043 80.090,169.801 80.812,169.655 81.496 C 169.508 82.181,169.251 82.989,169.084 83.292 C 168.917 83.594,168.271 85.215,167.648 86.894 C 167.025 88.573,166.196 90.667,165.806 91.548 C 165.415 92.429,165.016 93.560,164.919 94.062 C 164.822 94.563,164.712 95.135,164.673 95.332 C 164.635 95.530,164.347 96.095,164.032 96.589 C 163.718 97.083,163.333 97.971,163.178 98.564 C 162.829 99.893,162.864 99.789,162.358 101.011 C 162.127 101.567,161.939 102.148,161.939 102.302 C 161.939 102.456,161.697 103.069,161.400 103.662 C 160.696 105.074,159.082 109.390,158.726 110.814 C 158.572 111.429,158.193 112.399,157.884 112.968 C 157.574 113.538,156.896 115.296,156.375 116.876 C 155.855 118.456,155.286 120.072,155.112 120.467 C 154.473 121.916,152.666 126.617,152.144 128.187 C 151.849 129.075,151.039 131.205,150.344 132.919 C 149.650 134.633,149.162 136.116,149.261 136.215 C 149.361 136.314,149.183 136.851,148.868 137.408 C 148.093 138.775,145.422 145.644,145.422 146.271 C 145.422 146.838,145.705 146.958,151.885 149.017 C 154.354 149.840,156.883 150.740,157.505 151.019 C 158.127 151.298,158.772 151.526,158.937 151.526 C 159.362 151.526,170.300 155.943,170.736 156.290 C 174.615 159.380,182.047 161.713,182.047 159.841 C 182.047 159.607,182.201 159.135,182.389 158.792 C 182.577 158.449,183.081 157.118,183.510 155.835 C 183.938 154.551,184.834 152.091,185.502 150.367 C 186.169 148.643,186.715 146.735,186.715 146.127 C 186.715 145.518,186.859 145.110,187.036 145.219 C 187.381 145.433,187.754 144.702,188.025 143.279 C 188.117 142.791,188.329 142.226,188.494 142.022 C 188.659 141.818,188.960 141.086,189.162 140.395 C 189.606 138.877,190.459 136.417,191.590 133.393 C 191.738 132.998,191.887 132.594,191.921 132.496 C 191.955 132.397,192.083 132.074,192.205 131.777 C 192.326 131.481,192.688 130.350,193.007 129.264 C 193.327 128.178,193.819 126.758,194.101 126.110 C 194.383 125.461,194.614 124.602,194.614 124.199 C 194.614 123.797,194.852 123.229,195.143 122.938 C 195.434 122.647,195.846 121.730,196.058 120.899 C 196.700 118.384,197.138 117.525,197.976 117.143 C 199.435 116.479,199.584 116.738,202.668 125.314 C 203.201 126.795,204.050 129.138,204.556 130.521 C 205.820 133.982,206.564 136.032,208.074 140.215 C 208.786 142.190,209.560 144.291,209.793 144.883 C 210.026 145.476,210.245 146.122,210.280 146.320 C 210.333 146.618,211.832 150.724,212.901 153.501 C 213.204 154.288,213.412 154.867,215.460 160.650 C 216.223 162.804,217.015 164.735,217.221 164.940 C 217.426 165.146,217.594 165.658,217.594 166.079 C 217.594 166.500,217.998 167.639,218.490 168.611 C 218.983 169.582,219.387 170.654,219.388 170.993 C 219.391 172.002,220.554 174.134,220.975 173.900 C 221.189 173.780,221.170 173.893,220.932 174.150 C 220.623 174.484,220.606 174.814,220.872 175.311 C 221.077 175.693,221.317 176.410,221.407 176.904 C 221.496 177.398,221.819 178.183,222.124 178.649 C 222.429 179.114,222.646 179.544,222.606 179.604 C 222.447 179.842,223.819 184.233,224.108 184.412 C 224.277 184.517,224.417 184.916,224.417 185.299 C 224.417 185.683,224.592 185.996,224.806 185.996 C 225.019 185.996,225.126 186.198,225.042 186.445 C 224.958 186.692,225.833 189.630,226.987 192.974 C 228.140 196.318,229.084 199.102,229.084 199.161 C 229.084 199.220,229.610 199.819,230.251 200.491 C 230.893 201.164,232.307 202.731,233.393 203.974 C 234.479 205.216,235.721 206.604,236.151 207.058 C 236.582 207.512,237.390 208.493,237.947 209.238 C 238.503 209.983,239.129 210.754,239.336 210.952 C 239.544 211.149,240.349 212.118,241.126 213.106 C 241.903 214.093,242.668 215.063,242.826 215.260 C 243.460 216.054,251.789 228.666,252.784 230.341 C 253.254 231.131,254.045 232.322,254.542 232.987 C 255.039 233.652,255.483 234.446,255.528 234.753 C 255.573 235.059,255.906 235.726,256.269 236.236 C 256.632 236.746,257.327 237.971,257.813 238.959 C 258.300 239.946,258.799 240.835,258.923 240.934 C 259.048 241.032,259.271 241.517,259.420 242.011 C 259.568 242.504,259.890 243.151,260.134 243.447 C 260.378 243.743,260.802 244.511,261.077 245.153 C 261.351 245.794,261.698 246.320,261.847 246.320 C 261.996 246.320,262.088 246.441,262.052 246.589 C 262.015 246.737,262.257 247.484,262.590 248.249 C 262.923 249.013,263.196 249.696,263.196 249.765 C 263.196 249.834,263.580 250.743,264.049 251.786 C 265.533 255.078,268.941 263.527,268.941 263.913 C 268.941 264.116,269.094 264.563,269.282 264.906 C 270.867 267.804,275.802 286.242,277.184 294.434 C 277.368 295.521,277.695 297.136,277.912 298.025 C 278.129 298.914,278.312 299.883,278.319 300.180 C 278.326 300.476,278.479 301.930,278.658 303.411 C 279.080 306.900,279.427 310.446,279.502 312.031 C 279.535 312.723,279.669 313.462,279.799 313.674 C 280.184 314.297,315.939 314.346,316.177 313.724 C 316.278 313.462,316.099 312.610,315.781 311.830 C 315.462 311.051,314.667 309.120,314.014 307.540 C 312.466 303.794,312.305 303.363,312.146 302.537 C 312.073 302.155,311.670 301.105,311.252 300.203 C 310.833 299.301,310.289 298.079,310.043 297.487 C 309.796 296.894,309.317 295.763,308.978 294.973 C 308.638 294.183,308.288 293.133,308.199 292.639 C 308.110 292.145,307.885 291.688,307.699 291.622 C 307.513 291.556,307.361 291.211,307.361 290.855 C 307.361 290.499,307.119 289.745,306.824 289.179 C 306.529 288.614,306.287 287.878,306.286 287.544 C 306.285 287.210,306.122 286.837,305.925 286.715 C 305.727 286.592,305.566 286.232,305.566 285.914 C 305.566 285.417,304.446 282.270,303.424 279.892 C 303.254 279.497,302.753 278.205,302.311 277.020 C 301.869 275.835,301.233 274.219,300.896 273.429 C 300.560 272.639,299.999 271.185,299.650 270.197 C 299.301 269.210,298.775 267.857,298.482 267.190 C 298.188 266.523,297.921 265.796,297.889 265.574 C 297.813 265.065,297.064 263.109,296.187 261.135 C 295.816 260.298,295.511 259.409,295.509 259.160 C 295.508 258.911,295.291 258.293,295.026 257.786 C 294.762 257.279,294.429 256.399,294.286 255.831 C 294.143 255.262,293.772 254.223,293.460 253.521 C 293.148 252.819,292.855 252.075,292.809 251.869 C 292.762 251.663,292.382 250.743,291.964 249.824 C 291.545 248.906,291.203 247.976,291.203 247.758 C 291.203 247.540,290.927 246.844,290.590 246.212 C 290.252 245.580,289.967 244.982,289.955 244.883 C 289.928 244.655,287.686 238.952,287.061 237.522 C 286.802 236.930,286.479 235.999,286.343 235.454 C 286.208 234.909,285.950 234.373,285.771 234.263 C 285.592 234.152,285.540 233.910,285.654 233.725 C 285.769 233.539,285.610 233.135,285.301 232.826 C 284.992 232.517,284.719 232.034,284.695 231.752 C 284.636 231.083,284.580 230.893,284.081 229.689 C 283.851 229.133,283.662 228.398,283.662 228.056 C 283.662 227.713,283.516 227.279,283.336 227.092 C 283.157 226.904,282.575 225.458,282.043 223.878 C 281.512 222.298,280.835 220.814,280.538 220.580 C 280.242 220.347,280.089 220.012,280.197 219.837 C 280.305 219.661,280.160 219.066,279.874 218.515 C 279.588 217.963,279.354 217.307,279.354 217.056 C 279.354 216.805,279.112 216.136,278.817 215.571 C 278.522 215.005,278.275 214.300,278.267 214.004 C 278.260 213.707,278.016 213.151,277.726 212.768 C 277.437 212.385,277.199 211.856,277.199 211.593 C 277.199 211.185,274.590 204.152,273.631 201.975 C 273.050 200.656,272.776 199.823,272.833 199.551 C 272.865 199.403,272.729 199.282,272.531 199.282 C 272.334 199.282,272.172 198.964,272.172 198.576 C 272.172 198.188,271.943 197.339,271.664 196.691 C 271.384 196.042,270.912 194.946,270.614 194.255 C 270.317 193.564,269.963 192.554,269.827 192.011 C 269.692 191.468,269.476 191.023,269.348 191.023 C 269.088 191.023,268.223 188.439,268.223 187.662 C 268.223 187.387,267.973 186.954,267.668 186.701 C 267.362 186.448,267.194 186.029,267.293 185.771 C 267.392 185.513,267.316 185.204,267.124 185.085 C 266.932 184.967,266.861 184.730,266.966 184.560 C 267.071 184.390,266.993 184.149,266.792 184.025 C 266.592 183.901,266.427 183.566,266.427 183.280 C 266.427 182.995,266.023 181.924,265.530 180.901 C 265.036 179.877,264.632 178.866,264.632 178.653 C 264.632 178.440,264.309 177.663,263.914 176.925 C 263.518 176.188,263.233 175.464,263.279 175.315 C 263.455 174.750,261.633 170.350,260.986 169.775 C 260.613 169.443,260.462 169.077,260.650 168.961 C 260.855 168.834,260.787 168.356,260.480 167.768 C 260.199 167.228,259.968 166.536,259.966 166.230 C 259.965 165.924,259.770 165.479,259.533 165.242 C 259.296 165.005,259.206 164.811,259.333 164.811 C 259.460 164.811,259.012 163.600,258.337 162.118 C 257.662 160.637,257.205 159.425,257.321 159.425 C 257.438 159.425,257.272 159.027,256.953 158.540 C 256.634 158.054,256.373 157.407,256.373 157.104 C 256.373 156.801,256.217 156.553,256.026 156.553 C 255.834 156.553,255.767 156.320,255.876 156.036 C 255.985 155.752,255.673 154.581,255.182 153.433 C 254.691 152.285,253.932 150.377,253.495 149.192 C 253.058 148.007,252.488 146.553,252.229 145.960 C 251.088 143.357,250.287 141.443,250.234 141.198 C 250.113 140.630,249.811 139.807,249.310 138.675 C 249.022 138.026,248.540 136.652,248.240 135.623 C 247.726 133.862,246.288 130.202,245.568 128.820 C 245.389 128.477,245.242 127.903,245.242 127.545 C 245.242 127.187,245.096 126.741,244.917 126.553 C 244.737 126.365,244.070 124.758,243.433 122.980 C 241.533 117.679,241.469 117.522,240.961 116.909 C 240.692 116.585,240.563 116.230,240.674 116.119 C 240.991 115.801,240.182 113.802,239.826 114.023 C 239.650 114.131,239.600 113.974,239.716 113.672 C 239.831 113.371,239.668 112.866,239.353 112.551 C 239.037 112.235,238.779 111.694,238.779 111.348 C 238.779 110.680,237.313 106.168,236.716 105.002 C 236.521 104.621,236.163 103.743,235.919 103.052 C 234.359 98.623,232.029 92.555,230.886 89.946 C 230.713 89.551,230.247 88.259,229.850 87.074 C 229.453 85.889,228.795 84.240,228.388 83.411 C 227.981 82.581,227.648 81.648,227.648 81.338 C 227.648 81.028,227.173 79.726,226.592 78.444 L 225.535 76.114 198.600 76.127 C 183.786 76.134,171.599 76.257,171.517 76.400 M104.239 163.050 C 104.046 163.243,103.983 164.082,104.098 164.914 C 104.214 165.746,104.279 167.235,104.242 168.223 C 103.996 174.778,103.942 187.489,104.158 187.839 C 104.302 188.071,106.252 188.491,108.493 188.773 C 110.734 189.055,112.971 189.358,113.465 189.446 C 113.959 189.534,115.373 189.702,116.607 189.819 C 117.841 189.936,118.851 190.175,118.851 190.348 C 118.851 190.522,118.972 190.633,119.120 190.596 C 119.661 190.458,124.634 191.512,124.813 191.802 C 124.914 191.966,125.340 192.101,125.759 192.101 C 126.177 192.101,127.016 192.250,127.623 192.434 C 128.229 192.617,129.937 193.124,131.418 193.561 C 134.008 194.326,140.163 196.454,141.652 197.101 C 143.503 197.905,146.331 199.015,146.666 199.070 C 146.870 199.103,147.484 199.426,148.028 199.788 C 148.573 200.150,149.543 200.636,150.183 200.869 C 150.823 201.102,152.738 201.971,154.439 202.801 C 156.139 203.630,157.701 204.309,157.910 204.309 C 158.118 204.309,158.342 204.444,158.408 204.610 C 158.573 205.026,163.408 207.899,163.943 207.899 C 164.181 207.899,164.469 208.142,164.582 208.438 C 164.696 208.734,164.954 208.977,165.156 208.977 C 165.634 208.977,170.700 212.211,170.856 212.616 C 170.922 212.787,171.180 212.926,171.429 212.926 C 171.679 212.926,172.221 213.219,172.633 213.577 C 173.046 213.935,173.820 214.541,174.354 214.924 C 174.888 215.306,176.231 216.354,177.339 217.252 C 178.447 218.150,179.758 219.162,180.251 219.502 C 182.403 220.983,193.301 231.635,196.462 235.345 C 197.124 236.123,198.243 237.415,198.949 238.218 C 199.654 239.020,200.704 240.323,201.283 241.113 C 201.861 241.903,202.633 242.872,202.998 243.267 C 203.363 243.662,204.218 244.849,204.899 245.904 C 205.580 246.959,206.303 248.009,206.505 248.238 C 206.979 248.774,210.861 254.803,211.894 256.605 C 212.330 257.366,213.090 258.716,213.583 259.605 C 214.075 260.494,214.675 261.463,214.916 261.759 C 215.158 262.056,215.474 262.702,215.619 263.196 C 215.765 263.689,216.080 264.336,216.320 264.632 C 216.559 264.928,217.126 266.059,217.579 267.145 C 218.033 268.232,218.948 270.303,219.614 271.749 C 220.280 273.195,221.239 275.610,221.744 277.115 C 222.249 278.620,222.872 280.265,223.127 280.770 C 224.086 282.668,226.077 289.194,226.419 291.562 C 226.518 292.253,226.777 293.465,226.994 294.255 C 227.211 295.045,227.592 296.661,227.842 297.846 C 228.092 299.031,228.374 300.323,228.469 300.718 C 228.564 301.113,228.752 302.325,228.888 303.411 C 229.023 304.497,229.276 305.871,229.449 306.463 C 229.623 307.056,229.870 308.914,229.999 310.592 C 230.128 312.271,230.303 313.757,230.387 313.895 C 230.589 314.226,254.998 314.051,255.541 313.715 C 255.780 313.567,255.894 312.956,255.805 312.293 C 255.719 311.654,255.570 310.162,255.473 308.977 C 255.377 307.792,255.142 305.691,254.951 304.309 C 254.760 302.926,254.566 301.230,254.520 300.539 C 254.474 299.847,254.341 299.120,254.224 298.923 C 254.108 298.725,253.965 298.079,253.907 297.487 C 253.849 296.894,253.566 296.041,253.277 295.591 C 252.989 295.141,252.859 294.601,252.989 294.391 C 253.238 293.988,252.523 289.997,252.025 289.008 C 251.865 288.690,251.648 287.963,251.544 287.392 C 251.198 285.503,251.067 284.931,250.606 283.302 C 250.354 282.414,250.108 281.526,250.059 281.329 C 250.010 281.131,249.654 280.000,249.268 278.815 C 248.882 277.630,248.452 276.136,248.312 275.494 C 248.172 274.852,247.929 274.327,247.772 274.327 C 247.615 274.327,247.487 273.904,247.487 273.388 C 247.487 272.872,247.296 272.332,247.064 272.188 C 246.831 272.045,246.690 271.777,246.749 271.594 C 246.809 271.410,246.589 270.617,246.260 269.831 C 245.581 268.208,245.175 267.130,245.045 266.607 C 244.996 266.409,244.589 265.440,244.141 264.452 C 243.693 263.465,243.313 262.574,243.297 262.473 C 243.139 261.482,236.512 248.314,234.833 245.655 C 234.041 244.401,233.393 243.254,233.393 243.106 C 233.393 242.890,229.887 237.391,227.569 233.971 C 226.463 232.339,223.858 228.874,223.490 228.546 C 223.269 228.348,222.624 227.540,222.058 226.750 C 221.492 225.961,220.619 224.821,220.119 224.217 C 219.619 223.614,218.806 222.574,218.312 221.907 C 217.819 221.240,216.728 220.000,215.889 219.153 C 215.049 218.306,214.360 217.488,214.356 217.334 C 214.344 216.784,206.085 208.571,201.251 204.302 C 198.199 201.607,194.061 198.337,188.689 194.375 C 186.109 192.472,179.548 188.189,177.738 187.226 C 176.652 186.649,175.709 186.055,175.643 185.907 C 175.577 185.759,175.365 185.637,175.171 185.637 C 174.976 185.637,174.288 185.233,173.641 184.740 C 172.993 184.246,172.196 183.842,171.869 183.842 C 171.542 183.842,171.275 183.690,171.275 183.504 C 171.275 183.123,155.691 175.333,154.578 175.158 C 154.183 175.096,153.779 174.956,153.680 174.846 C 153.328 174.457,149.765 173.070,149.116 173.070 C 148.752 173.070,148.095 172.818,147.656 172.511 C 147.217 172.204,146.858 172.061,146.858 172.193 C 146.858 172.326,146.477 172.185,146.011 171.879 C 145.263 171.389,141.587 170.150,141.113 170.228 C 141.014 170.244,140.126 169.944,139.138 169.561 C 138.151 169.177,135.566 168.427,133.393 167.893 C 131.221 167.359,128.841 166.746,128.104 166.530 C 127.368 166.314,126.317 166.098,125.770 166.049 C 125.223 166.000,124.776 165.932,124.776 165.897 C 124.776 165.862,124.533 165.781,124.237 165.716 C 123.941 165.651,123.294 165.505,122.801 165.391 C 119.239 164.571,115.217 163.805,114.500 163.811 C 114.029 163.815,112.675 163.648,111.490 163.439 C 108.134 162.849,104.628 162.661,104.239 163.050 M104.085 212.116 C 103.808 213.805,104.004 237.091,104.296 237.187 C 104.500 237.254,105.233 237.391,105.925 237.493 C 113.860 238.661,122.949 241.560,130.860 245.447 C 131.837 245.927,132.847 246.320,133.105 246.320 C 133.362 246.320,133.573 246.508,133.573 246.738 C 133.573 246.969,133.667 247.063,133.781 246.949 C 133.896 246.834,134.565 247.130,135.268 247.607 C 135.971 248.084,136.765 248.474,137.034 248.474 C 137.303 248.474,137.522 248.599,137.522 248.751 C 137.522 248.904,138.128 249.348,138.869 249.739 C 140.618 250.661,144.877 253.553,146.492 254.915 C 146.857 255.223,147.534 255.781,147.995 256.153 C 152.634 259.902,157.674 264.748,159.986 267.684 C 160.764 268.671,161.492 269.560,161.604 269.659 C 161.717 269.758,162.641 270.969,163.659 272.352 C 164.676 273.734,165.715 275.113,165.968 275.415 C 166.221 275.717,166.655 276.401,166.934 276.935 C 167.212 277.469,167.697 278.191,168.011 278.540 C 168.325 278.889,168.824 279.659,169.120 280.251 C 169.416 280.844,169.751 281.409,169.865 281.508 C 170.278 281.865,174.773 291.059,175.219 292.460 C 175.471 293.250,175.798 294.057,175.946 294.255 C 176.799 295.394,179.982 306.242,180.818 310.859 L 181.419 314.178 193.492 314.119 C 200.133 314.086,205.742 313.999,205.957 313.925 C 206.416 313.768,206.334 311.419,205.755 308.079 C 205.532 306.795,205.293 305.173,205.224 304.473 C 204.951 301.698,201.671 289.569,200.833 288.233 C 200.681 287.990,200.505 287.414,200.441 286.952 C 200.378 286.489,200.010 285.522,199.624 284.802 C 199.238 284.083,198.923 283.267,198.923 282.989 C 198.923 282.096,193.303 270.970,190.710 266.729 C 190.388 266.204,189.608 264.886,188.974 263.800 C 187.992 262.115,183.428 255.797,181.836 253.917 C 175.476 246.408,171.293 242.283,164.097 236.426 C 160.880 233.808,153.570 228.725,153.021 228.725 C 152.824 228.725,152.609 228.598,152.543 228.443 C 152.317 227.909,142.810 222.621,142.076 222.621 C 141.904 222.621,141.253 222.258,140.630 221.815 C 140.007 221.371,139.417 221.029,139.318 221.054 C 139.083 221.113,137.618 220.578,136.266 219.938 C 135.673 219.658,133.977 219.002,132.496 218.480 C 131.014 217.957,128.995 217.246,128.007 216.899 C 127.020 216.551,125.646 216.103,124.955 215.903 C 124.264 215.702,122.810 215.279,121.724 214.962 C 114.926 212.976,104.227 211.250,104.085 212.116 M117.800 273.817 C 96.202 278.921,95.642 308.363,117.032 314.178 C 118.680 314.626,124.486 314.735,126.273 314.352 C 134.287 312.634,139.341 308.192,142.346 300.225 C 143.026 298.421,143.134 289.048,142.475 289.048 C 142.276 289.048,142.209 288.800,142.326 288.496 C 142.442 288.192,142.406 287.667,142.246 287.329 C 138.552 279.548,135.372 276.422,129.040 274.343 C 126.341 273.457,120.484 273.183,117.800 273.817 " stroke="none" fill="#ec6c24" fill-rule="evenodd"></path><path id="path1" d="M171.228 75.050 C 170.576 75.430,170.011 76.734,166.043 87.004 C 164.532 90.915,163.376 94.196,163.474 94.294 C 163.573 94.393,163.899 93.778,164.199 92.928 C 166.030 87.739,170.690 76.211,171.172 75.678 C 172.057 74.700,226.357 74.695,226.741 75.673 C 226.876 76.019,228.416 80.099,230.162 84.740 C 231.908 89.381,236.758 102.145,240.939 113.106 C 245.121 124.066,251.176 139.982,254.396 148.474 C 257.615 156.966,261.492 167.145,263.011 171.095 C 264.530 175.045,266.552 180.377,267.506 182.944 C 268.459 185.512,270.525 190.925,272.096 194.973 C 273.667 199.022,277.420 208.797,280.435 216.697 C 283.451 224.596,287.605 235.422,289.666 240.754 C 291.728 246.086,296.052 257.397,299.275 265.889 C 306.578 285.129,317.289 313.086,318.020 314.811 C 318.170 315.167,314.118 315.260,298.442 315.260 L 278.675 315.260 278.532 313.642 L 278.390 312.024 278.423 313.732 L 278.456 315.440 298.184 315.533 C 309.293 315.585,318.050 315.487,318.229 315.308 C 318.414 315.123,317.347 311.919,315.688 307.674 C 314.115 303.651,311.420 296.643,309.699 292.101 C 307.977 287.558,306.005 282.388,305.315 280.610 C 303.976 277.159,302.110 272.248,297.129 259.066 C 295.413 254.524,292.958 248.142,291.673 244.883 C 290.388 241.625,288.074 235.646,286.530 231.598 C 284.987 227.549,282.483 221.005,280.966 217.056 C 279.448 213.106,276.703 205.916,274.865 201.077 C 273.026 196.239,269.876 187.998,267.865 182.765 C 265.853 177.531,263.663 171.755,262.998 169.929 C 262.333 168.103,261.064 164.791,260.178 162.568 C 259.292 160.346,257.846 156.589,256.966 154.219 C 256.086 151.849,253.798 145.790,251.883 140.754 C 249.968 135.718,247.789 129.982,247.039 128.007 C 246.290 126.032,244.839 122.235,243.813 119.569 C 242.788 116.903,240.115 109.874,237.872 103.950 C 235.630 98.025,232.356 89.376,230.598 84.730 C 228.839 80.083,227.207 75.922,226.973 75.484 L 226.546 74.686 199.179 74.697 C 182.522 74.703,171.584 74.841,171.228 75.050 M162.154 97.343 C 161.629 98.760,161.261 99.980,161.336 100.055 C 161.410 100.130,161.900 99.031,162.424 97.612 C 162.947 96.194,163.316 94.973,163.242 94.900 C 163.169 94.827,162.680 95.926,162.154 97.343 M157.185 110.510 C 150.988 126.698,148.591 133.271,148.808 133.488 C 148.921 133.600,149.013 133.606,149.013 133.502 C 149.013 133.397,151.765 125.996,155.128 117.056 C 158.492 108.116,161.188 100.746,161.120 100.677 C 161.052 100.609,159.281 105.034,157.185 110.510 M196.438 123.250 C 195.371 126.261,192.809 133.330,190.746 138.959 C 187.606 147.520,183.134 160.068,182.234 162.837 C 182.084 163.300,182.184 163.237,182.516 162.657 C 182.800 162.163,183.391 160.709,183.830 159.425 C 184.269 158.142,185.569 154.506,186.718 151.346 C 187.868 148.187,189.880 142.612,191.189 138.959 C 192.499 135.305,193.877 131.508,194.251 130.521 C 194.626 129.533,195.693 126.584,196.622 123.968 C 198.545 118.554,198.509 118.589,199.640 121.004 C 200.814 123.511,200.865 123.066,199.733 120.186 C 198.509 117.071,198.686 116.906,196.438 123.250 M202.023 127.110 C 202.144 127.603,202.464 128.492,202.734 129.084 C 203.128 129.950,203.181 129.985,203.004 129.264 C 202.883 128.770,202.563 127.882,202.293 127.289 C 201.899 126.424,201.846 126.389,202.023 127.110 M204.177 132.855 C 204.298 133.348,204.618 134.237,204.888 134.829 C 205.282 135.695,205.335 135.730,205.158 135.009 C 205.037 134.515,204.717 133.627,204.448 133.034 C 204.054 132.169,204.000 132.134,204.177 132.855 M147.127 137.254 C 144.330 144.463,143.535 146.819,143.727 147.321 C 143.841 147.616,146.182 148.595,149.074 149.557 C 159.653 153.076,168.963 156.963,177.491 161.421 C 179.626 162.537,181.446 163.377,181.536 163.287 C 182.404 162.419,159.043 152.278,148.205 148.818 C 145.884 148.077,143.988 147.293,143.990 147.075 C 143.993 146.857,145.043 143.864,146.324 140.425 C 147.605 136.985,148.600 134.117,148.534 134.052 C 148.469 133.986,147.835 135.427,147.127 137.254 M205.568 136.804 C 206.024 138.313,207.141 140.956,207.162 140.575 C 207.185 140.149,205.767 136.346,205.489 136.086 C 205.383 135.987,205.419 136.311,205.568 136.804 M209.182 146.858 C 209.315 147.352,209.572 147.998,209.755 148.294 C 209.987 148.669,210.015 148.559,209.848 147.935 C 209.716 147.442,209.458 146.795,209.275 146.499 C 209.044 146.125,209.016 146.234,209.182 146.858 M210.619 150.808 C 210.751 151.302,211.009 151.948,211.192 152.244 C 211.423 152.618,211.451 152.509,211.284 151.885 C 211.152 151.391,210.894 150.745,210.711 150.449 C 210.480 150.075,210.452 150.184,210.619 150.808 M211.849 154.165 C 211.849 154.797,216.238 166.647,216.409 166.476 C 216.485 166.399,215.916 164.660,215.144 162.612 C 214.371 160.563,213.382 157.796,212.945 156.463 C 212.284 154.450,211.849 153.537,211.849 154.165 M103.142 161.459 C 102.637 161.662,102.461 189.043,102.962 189.352 C 103.110 189.443,104.847 189.703,106.822 189.930 C 108.797 190.157,112.110 190.657,114.183 191.042 C 117.983 191.746,120.182 191.941,117.681 191.351 C 115.480 190.833,108.087 189.652,105.472 189.402 L 103.044 189.170 103.138 175.465 L 103.232 161.759 104.488 161.537 C 105.683 161.326,105.692 161.314,104.668 161.296 C 104.075 161.286,103.389 161.359,103.142 161.459 M107.275 161.834 C 107.722 161.920,108.368 161.916,108.712 161.827 C 109.055 161.737,108.689 161.666,107.899 161.670 C 107.110 161.674,106.829 161.748,107.275 161.834 M109.964 162.186 C 110.310 162.277,110.875 162.277,111.221 162.186 C 111.566 162.096,111.284 162.022,110.592 162.022 C 109.901 162.022,109.618 162.096,109.964 162.186 M113.645 162.657 C 114.237 162.808,115.126 162.931,115.619 162.931 C 116.420 162.931,116.401 162.902,115.440 162.657 C 114.847 162.506,113.959 162.383,113.465 162.383 C 112.664 162.383,112.684 162.413,113.645 162.657 M117.594 163.256 C 117.989 163.342,120.009 163.735,122.083 164.129 C 125.164 164.714,130.736 166.042,136.445 167.553 C 136.939 167.683,137.243 167.680,137.121 167.545 C 136.519 166.880,119.663 162.970,117.776 163.058 C 117.055 163.091,117.019 163.131,117.594 163.256 M216.745 167.684 C 216.866 168.178,217.186 169.066,217.455 169.659 C 217.849 170.524,217.903 170.559,217.726 169.838 C 217.605 169.345,217.285 168.456,217.015 167.864 C 216.621 166.998,216.568 166.963,216.745 167.684 M141.472 169.128 C 145.855 170.615,146.312 170.740,145.363 170.186 C 144.579 169.728,138.296 167.678,137.759 167.705 C 137.530 167.716,139.201 168.357,141.472 169.128 M147.169 171.109 C 147.833 171.398,148.560 171.627,148.784 171.620 C 149.009 171.612,148.648 171.370,147.984 171.081 C 147.319 170.793,146.592 170.563,146.368 170.571 C 146.144 170.578,146.504 170.821,147.169 171.109 M218.540 172.711 C 218.661 173.205,218.981 174.093,219.251 174.686 C 219.645 175.551,219.698 175.586,219.521 174.865 C 219.400 174.372,219.080 173.483,218.810 172.890 C 218.416 172.025,218.363 171.990,218.540 172.711 M155.442 174.354 C 156.904 175.035,158.160 175.532,158.233 175.460 C 158.384 175.309,153.453 173.058,153.049 173.093 C 152.903 173.106,153.979 173.674,155.442 174.354 M158.737 175.723 C 159.127 176.084,170.691 181.712,170.377 181.387 C 169.975 180.970,159.284 175.583,158.859 175.583 C 158.710 175.583,158.655 175.646,158.737 175.723 M172.531 182.666 C 172.729 182.855,173.537 183.372,174.327 183.815 C 175.117 184.259,175.440 184.353,175.045 184.025 C 174.243 183.358,171.968 182.129,172.531 182.666 M175.943 184.671 C 175.943 184.770,176.710 185.293,177.648 185.833 C 221.379 211.009,253.046 261.440,256.948 312.118 L 257.190 315.260 243.347 315.260 C 234.251 315.260,229.441 315.134,229.321 314.892 C 229.220 314.690,229.180 314.730,229.231 314.982 C 229.395 315.791,257.036 315.822,257.346 315.014 C 258.300 312.529,255.392 295.272,251.700 281.508 C 243.925 252.519,224.033 221.644,200.359 201.822 C 192.063 194.875,175.943 183.552,175.943 184.671 M223.353 186.224 C 223.346 186.449,223.575 187.176,223.864 187.840 C 224.152 188.505,224.395 188.865,224.402 188.641 C 224.410 188.417,224.180 187.690,223.892 187.025 C 223.603 186.361,223.361 186.000,223.353 186.224 M225.362 192.101 C 225.483 192.594,225.803 193.483,226.073 194.075 C 226.467 194.941,226.520 194.976,226.343 194.255 C 226.222 193.761,225.902 192.873,225.633 192.280 C 225.239 191.415,225.185 191.380,225.362 192.101 M124.417 193.172 C 132.584 195.270,140.235 197.886,146.679 200.784 C 151.703 203.044,152.345 203.248,149.192 201.585 C 142.638 198.127,123.108 191.635,119.649 191.765 C 119.309 191.777,121.454 192.411,124.417 193.172 M226.571 195.607 C 226.571 196.166,227.982 199.718,228.435 200.297 C 228.693 200.628,230.448 202.675,232.337 204.847 C 241.194 215.038,246.455 222.176,252.381 232.047 C 253.418 233.775,254.347 235.189,254.444 235.189 C 254.655 235.189,254.726 235.320,252.706 231.957 C 246.755 222.050,240.910 214.145,231.997 203.950 C 229.051 200.580,228.248 199.408,227.629 197.576 C 226.945 195.549,226.571 194.853,226.571 195.607 M151.915 203.016 C 151.997 203.095,153.357 203.845,154.937 204.684 C 176.616 216.189,193.982 231.755,206.866 251.231 C 211.237 257.839,211.255 257.864,210.726 256.732 C 205.252 245.020,185.749 224.161,170.377 213.578 C 163.505 208.847,149.841 201.030,151.915 203.016 M102.932 210.652 C 102.600 210.984,102.630 237.979,102.962 238.185 C 103.110 238.277,103.187 232.268,103.133 224.833 C 103.043 212.408,103.085 211.277,103.651 210.863 C 104.162 210.490,104.173 210.413,103.719 210.413 C 103.418 210.413,103.064 210.521,102.932 210.652 M105.925 210.790 C 106.813 210.948,108.025 211.070,108.618 211.060 C 109.412 211.046,109.271 210.966,108.079 210.754 C 107.190 210.596,105.978 210.474,105.386 210.484 C 104.591 210.498,104.733 210.578,105.925 210.790 M109.904 211.275 C 110.156 211.517,116.408 212.616,116.577 212.448 C 116.664 212.361,115.312 212.029,113.574 211.710 C 110.294 211.108,109.651 211.032,109.904 211.275 M117.774 212.926 C 119.001 213.320,119.946 213.320,119.031 212.926 C 118.636 212.757,117.989 212.623,117.594 212.628 C 117.017 212.637,117.052 212.695,117.774 212.926 M121.544 213.864 C 122.531 214.155,124.854 214.877,126.706 215.470 C 128.557 216.062,130.135 216.483,130.213 216.405 C 130.291 216.327,128.696 215.742,126.668 215.104 C 124.640 214.467,122.512 213.797,121.939 213.615 C 121.367 213.434,120.640 213.297,120.323 213.310 C 120.007 213.324,120.557 213.573,121.544 213.864 M134.698 218.121 C 135.000 218.423,137.522 219.404,137.522 219.220 C 137.522 219.121,136.937 218.796,136.222 218.497 C 134.897 217.943,134.397 217.820,134.698 218.121 M143.088 222.061 C 146.050 223.524,149.484 225.308,150.718 226.026 C 151.952 226.743,152.962 227.255,152.962 227.162 C 152.962 226.654,139.014 219.386,138.061 219.397 C 137.864 219.399,140.126 220.598,143.088 222.061 M153.501 227.548 C 153.698 227.749,155.571 229.052,157.663 230.443 C 180.633 245.727,197.944 270.443,205.023 298.062 C 205.599 300.313,206.078 301.831,206.087 301.436 C 206.104 300.624,204.705 295.242,203.426 291.203 C 195.698 266.792,179.439 244.785,158.887 230.920 C 153.981 227.611,152.889 226.927,153.501 227.548 M254.584 235.617 C 254.576 235.942,256.039 238.420,256.239 238.420 C 256.323 238.420,256.151 237.976,255.857 237.433 C 255.125 236.081,254.590 235.318,254.584 235.617 M104.847 238.761 C 105.539 238.909,107.235 239.234,108.618 239.483 C 134.087 244.073,156.420 260.479,169.847 284.462 C 171.422 287.276,172.711 289.428,172.711 289.243 C 172.711 288.549,167.842 280.098,165.255 276.302 C 152.071 256.955,131.735 243.550,108.869 239.134 C 105.414 238.467,101.988 238.149,104.847 238.761 M259.323 244.688 C 260.549 247.148,261.608 249.104,261.677 249.035 C 261.836 248.876,257.508 240.215,257.270 240.215 C 257.174 240.215,258.098 242.228,259.323 244.688 M261.774 249.630 C 261.766 249.773,262.148 250.742,262.622 251.785 C 263.096 252.827,264.156 255.296,264.978 257.271 C 266.941 261.993,267.217 262.576,266.930 261.400 C 266.464 259.497,261.815 248.885,261.774 249.630 M214.467 264.238 C 216.286 267.773,217.827 270.614,217.893 270.552 C 218.029 270.421,214.544 263.406,212.678 260.054 C 210.286 255.758,211.181 257.851,214.467 264.238 M267.158 262.526 C 267.151 262.652,267.381 263.298,267.670 263.962 C 267.958 264.627,268.195 264.928,268.196 264.632 C 268.197 264.114,267.184 262.059,267.158 262.526 M268.601 266.248 C 268.596 266.445,268.825 267.253,269.110 268.043 C 269.395 268.833,269.634 269.215,269.643 268.892 C 269.652 268.569,269.423 267.761,269.134 267.097 C 268.846 266.432,268.606 266.050,268.601 266.248 M217.984 271.099 C 217.967 271.200,218.517 272.573,219.206 274.151 C 219.894 275.729,220.454 276.777,220.448 276.481 C 220.439 275.958,218.046 270.731,217.984 271.099 M118.309 272.154 C 112.637 273.379,107.524 276.501,104.512 280.579 C 103.117 282.467,101.468 285.430,101.689 285.651 C 101.757 285.719,102.291 284.861,102.876 283.744 C 113.127 264.164,142.542 270.982,144.351 293.357 L 144.656 297.127 144.531 293.357 C 144.077 279.719,131.261 269.356,118.309 272.154 M271.819 276.691 C 271.822 277.069,271.988 277.621,272.189 277.917 C 272.455 278.311,272.488 278.165,272.312 277.379 C 272.017 276.059,271.811 275.772,271.819 276.691 M272.571 278.995 C 272.567 279.291,272.787 280.341,273.062 281.329 C 273.336 282.316,273.569 282.801,273.579 282.406 C 273.589 282.011,273.369 280.961,273.089 280.072 C 272.809 279.183,272.576 278.698,272.571 278.995 M222.621 282.733 C 222.621 282.880,223.250 285.209,224.020 287.909 C 224.789 290.610,225.615 293.676,225.855 294.723 C 226.096 295.771,226.363 296.558,226.448 296.472 C 226.652 296.268,226.084 293.927,224.342 287.792 C 223.045 283.224,222.621 281.977,222.621 282.733 M273.670 283.662 C 273.688 284.595,274.253 286.128,274.266 285.278 C 274.272 284.883,274.137 284.237,273.968 283.842 C 273.779 283.402,273.663 283.333,273.670 283.662 M274.388 286.715 C 274.394 287.110,274.528 287.837,274.686 288.330 L 274.973 289.228 274.984 288.330 C 274.990 287.837,274.856 287.110,274.686 286.715 L 274.377 285.996 274.388 286.715 M100.421 289.368 C 100.288 290.032,100.197 290.918,100.219 291.338 C 100.241 291.757,100.401 291.373,100.576 290.485 C 100.751 289.596,100.842 288.710,100.778 288.515 C 100.714 288.321,100.553 288.705,100.421 289.368 M275.116 289.946 C 275.116 290.341,275.246 291.068,275.404 291.562 C 275.632 292.273,275.691 292.310,275.691 291.741 C 275.691 291.346,275.562 290.619,275.404 290.126 C 275.176 289.415,275.116 289.377,275.116 289.946 M173.267 291.023 C 173.406 291.418,174.382 294.109,175.437 297.003 C 177.631 303.018,178.616 306.602,179.504 311.792 L 180.127 315.440 194.023 315.534 C 206.161 315.616,207.945 315.559,208.127 315.084 C 208.359 314.480,207.187 306.158,206.910 306.436 C 206.758 306.588,207.069 309.328,207.760 313.914 L 207.963 315.260 194.179 315.260 L 180.395 315.260 179.949 312.118 C 179.169 306.635,175.186 293.699,173.435 290.960 C 173.046 290.353,173.034 290.357,173.267 291.023 M99.923 294.614 C 99.926 295.601,99.996 295.963,100.078 295.417 C 100.161 294.871,100.158 294.063,100.073 293.622 C 99.988 293.180,99.920 293.627,99.923 294.614 M275.799 293.926 C 275.818 294.502,275.972 295.377,276.140 295.871 C 276.345 296.476,276.377 296.184,276.237 294.973 C 276.004 292.953,275.744 292.333,275.799 293.926 M100.209 297.321 C 99.878 307.638,113.090 317.594,125.061 316.049 C 134.817 314.789,144.567 305.588,144.321 297.870 C 144.308 297.462,144.066 298.016,143.783 299.102 C 137.986 321.378,105.556 321.195,100.764 298.860 C 100.475 297.512,100.225 296.820,100.209 297.321 M226.649 297.666 C 226.646 298.160,226.772 298.968,226.930 299.461 C 227.316 300.668,227.316 299.364,226.930 297.846 C 226.684 296.878,226.655 296.860,226.649 297.666 M276.564 298.025 C 276.564 298.716,276.638 298.999,276.729 298.654 C 276.819 298.308,276.819 297.742,276.729 297.397 C 276.638 297.051,276.564 297.334,276.564 298.025 M277.096 301.616 C 277.205 302.899,277.354 304.017,277.426 304.099 C 277.667 304.372,277.479 301.456,277.185 300.359 C 277.004 299.680,276.971 300.145,277.096 301.616 M227.450 301.795 C 227.542 302.585,227.801 304.282,228.027 305.566 C 228.253 306.849,228.558 309.273,228.704 310.952 C 228.969 313.986,228.971 313.990,229.027 311.731 C 229.059 310.482,228.756 307.573,228.355 305.268 C 227.609 300.977,227.154 299.230,227.450 301.795 M206.348 303.950 C 206.462 304.937,206.615 305.812,206.689 305.895 C 206.941 306.177,206.750 303.949,206.446 303.052 C 206.240 302.447,206.208 302.739,206.348 303.950 M277.807 307.540 C 277.916 309.120,278.066 310.480,278.141 310.563 C 278.383 310.829,278.232 307.944,277.916 306.284 C 277.686 305.069,277.658 305.381,277.807 307.540 " stroke="none" fill="#f4d2b9" fill-rule="evenodd"></path><path id="path2" d="M170.942 75.991 C 169.869 77.354,170.023 77.821,171.116 76.522 C 171.999 75.472,172.162 75.426,175.335 75.312 L 178.636 75.194 175.161 75.119 C 171.794 75.047,171.663 75.074,170.942 75.991 M161.083 101.119 C 160.765 102.052,160.567 102.877,160.643 102.953 C 160.719 103.029,161.041 102.328,161.359 101.395 C 161.677 100.462,161.875 99.637,161.799 99.561 C 161.723 99.485,161.401 100.186,161.083 101.119 M205.233 135.009 C 205.365 135.503,205.623 136.149,205.806 136.445 C 206.037 136.820,206.065 136.710,205.898 136.086 C 205.766 135.592,205.508 134.946,205.325 134.650 C 205.094 134.276,205.066 134.385,205.233 135.009 M166.248 155.655 C 166.741 155.938,167.307 156.168,167.504 156.168 C 167.702 156.168,167.460 155.938,166.966 155.655 C 166.472 155.373,165.907 155.142,165.709 155.142 C 165.512 155.142,165.754 155.373,166.248 155.655 M103.291 161.819 C 102.847 162.263,103.039 162.756,103.505 162.369 C 103.755 162.162,104.603 161.927,105.391 161.847 L 106.822 161.701 105.177 161.640 C 104.271 161.607,103.423 161.688,103.291 161.819 M152.962 173.609 C 153.456 173.891,154.022 174.122,154.219 174.122 C 154.417 174.122,154.174 173.891,153.680 173.609 C 153.187 173.326,152.621 173.095,152.424 173.095 C 152.226 173.095,152.469 173.326,152.962 173.609 M103.120 183.214 C 103.083 186.522,103.173 189.228,103.321 189.229 C 103.469 189.229,103.548 187.411,103.496 185.189 C 103.325 177.836,103.189 177.120,103.120 183.214 M169.120 181.137 C 169.120 181.236,169.928 181.726,170.916 182.226 C 171.903 182.727,172.711 183.055,172.711 182.956 C 172.711 182.858,171.903 182.368,170.916 181.867 C 169.928 181.367,169.120 181.038,169.120 181.137 M221.917 181.198 C 221.909 181.422,222.139 182.149,222.428 182.813 C 222.716 183.478,222.958 183.838,222.966 183.614 C 222.974 183.390,222.744 182.663,222.456 181.998 C 222.167 181.334,221.925 180.973,221.917 181.198 M105.839 189.482 C 106.286 189.568,106.932 189.565,107.275 189.475 C 107.619 189.385,107.253 189.315,106.463 189.319 C 105.673 189.323,105.392 189.396,105.839 189.482 M228.045 198.876 C 228.247 199.456,228.757 200.229,229.179 200.594 C 229.933 201.246,229.933 201.239,229.156 200.221 C 228.722 199.651,228.366 198.974,228.366 198.716 C 228.366 198.458,228.211 198.151,228.022 198.034 C 227.812 197.905,227.821 198.235,228.045 198.876 M150.449 202.154 C 151.140 202.533,151.867 202.842,152.065 202.842 C 152.262 202.842,151.858 202.533,151.167 202.154 C 150.476 201.776,149.749 201.466,149.551 201.466 C 149.354 201.466,149.758 201.776,150.449 202.154 M201.077 202.985 C 201.077 203.047,201.602 203.572,202.244 204.152 L 203.411 205.206 202.357 204.039 C 201.373 202.952,201.077 202.707,201.077 202.985 M232.316 204.421 C 232.316 204.483,232.841 205.008,233.483 205.588 L 234.650 206.643 233.595 205.476 C 232.612 204.388,232.316 204.144,232.316 204.421 M205.386 207.002 C 206.459 208.088,207.417 208.977,207.516 208.977 C 207.615 208.977,206.818 208.088,205.745 207.002 C 204.672 205.916,203.714 205.027,203.615 205.027 C 203.516 205.027,204.313 205.916,205.386 207.002 M240.918 214.632 C 241.585 215.471,242.196 216.158,242.275 216.158 C 242.529 216.158,240.990 214.138,240.336 213.613 C 239.989 213.334,240.251 213.793,240.918 214.632 M213.824 215.440 C 214.595 216.230,215.307 216.876,215.406 216.876 C 215.505 216.876,214.954 216.230,214.183 215.440 C 213.412 214.650,212.700 214.004,212.601 214.004 C 212.502 214.004,213.053 214.650,213.824 215.440 M103.210 225.494 C 103.210 231.122,103.260 233.425,103.321 230.610 C 103.381 227.796,103.381 223.191,103.321 220.377 C 103.260 217.563,103.210 219.865,103.210 225.494 M133.723 218.148 C 134.891 218.633,135.905 218.972,135.975 218.902 C 136.142 218.735,132.521 217.231,131.999 217.250 C 131.778 217.259,132.554 217.663,133.723 218.148 M245.429 220.788 C 246.153 221.796,246.819 222.621,246.909 222.621 C 247.156 222.621,244.930 219.461,244.493 219.191 C 244.284 219.062,244.705 219.780,245.429 220.788 M182.047 222.374 C 182.047 222.436,182.572 222.961,183.214 223.541 L 184.381 224.596 183.326 223.429 C 182.343 222.341,182.047 222.097,182.047 222.374 M189.408 229.443 C 191.969 232.011,194.146 234.111,194.245 234.111 C 194.343 234.111,192.328 232.011,189.767 229.443 C 187.205 226.876,185.028 224.776,184.930 224.776 C 184.831 224.776,186.846 226.876,189.408 229.443 M152.939 227.580 C 153.419 227.970,154.308 228.563,154.913 228.896 L 156.014 229.503 155.140 228.794 C 154.660 228.403,153.771 227.811,153.166 227.477 L 152.065 226.870 152.939 227.580 M194.255 234.583 C 194.255 234.645,194.780 235.170,195.422 235.750 L 196.589 236.804 195.534 235.637 C 194.551 234.550,194.255 234.305,194.255 234.583 M254.758 235.548 C 255.064 236.140,255.395 236.625,255.494 236.625 C 255.593 236.625,255.423 236.140,255.117 235.548 C 254.810 234.955,254.479 234.470,254.380 234.470 C 254.281 234.470,254.451 234.955,254.758 235.548 M103.142 237.074 C 103.219 238.074,103.373 238.247,104.223 238.284 C 105.089 238.322,105.103 238.308,104.334 238.173 C 103.698 238.060,103.398 237.725,103.253 236.962 C 103.062 235.958,103.056 235.963,103.142 237.074 M168.402 238.959 C 169.072 239.650,169.701 240.215,169.800 240.215 C 169.899 240.215,169.431 239.650,168.761 238.959 C 168.091 238.268,167.462 237.702,167.364 237.702 C 167.265 237.702,167.732 238.268,168.402 238.959 M174.327 244.524 C 176.492 246.697,178.345 248.474,178.444 248.474 C 178.543 248.474,176.851 246.697,174.686 244.524 C 172.520 242.352,170.668 240.575,170.569 240.575 C 170.470 240.575,172.161 242.352,174.327 244.524 M204.668 247.397 C 205.090 247.989,205.516 248.474,205.614 248.474 C 205.713 248.474,205.449 247.989,205.027 247.397 C 204.605 246.804,204.179 246.320,204.080 246.320 C 203.982 246.320,204.246 246.804,204.668 247.397 M131.448 246.813 C 131.818 247.143,133.932 248.115,133.932 247.954 C 133.932 247.747,131.941 246.679,131.556 246.679 C 131.414 246.679,131.366 246.739,131.448 246.813 M240.964 255.117 C 240.964 255.314,241.273 256.041,241.652 256.732 C 242.030 257.424,242.340 257.828,242.340 257.630 C 242.340 257.433,242.030 256.706,241.652 256.014 C 241.273 255.323,240.964 254.919,240.964 255.117 M151.706 260.682 C 152.477 261.472,153.189 262.118,153.288 262.118 C 153.386 262.118,152.836 261.472,152.065 260.682 C 151.293 259.892,150.581 259.246,150.483 259.246 C 150.384 259.246,150.934 259.892,151.706 260.682 M266.786 260.795 C 266.786 261.206,267.949 263.948,268.072 263.825 C 268.227 263.670,267.351 261.127,267.032 260.809 C 266.897 260.673,266.786 260.667,266.786 260.795 M215.619 265.709 C 215.926 266.302,216.257 266.786,216.356 266.786 C 216.455 266.786,216.285 266.302,215.978 265.709 C 215.672 265.117,215.341 264.632,215.242 264.632 C 215.143 264.632,215.313 265.117,215.619 265.709 M157.630 266.607 C 158.300 267.298,158.929 267.864,159.028 267.864 C 159.127 267.864,158.659 267.298,157.989 266.607 C 157.319 265.916,156.690 265.350,156.592 265.350 C 156.493 265.350,156.960 265.916,157.630 266.607 M216.543 267.325 C 216.543 267.522,216.773 268.088,217.056 268.582 C 217.338 269.075,217.569 269.318,217.569 269.120 C 217.569 268.923,217.338 268.357,217.056 267.864 C 216.773 267.370,216.543 267.127,216.543 267.325 M269.677 268.941 C 269.673 269.039,269.903 269.767,270.187 270.557 C 270.472 271.346,270.706 271.670,270.708 271.275 C 270.710 270.677,269.700 268.389,269.677 268.941 M217.979 270.557 C 217.979 270.754,218.210 271.320,218.492 271.813 C 218.774 272.307,219.005 272.549,219.005 272.352 C 219.005 272.154,218.774 271.589,218.492 271.095 C 218.210 270.601,217.979 270.359,217.979 270.557 M194.864 272.347 C 195.192 273.036,195.525 273.536,195.602 273.458 C 195.767 273.294,194.677 271.095,194.431 271.095 C 194.341 271.095,194.535 271.659,194.864 272.347 M121.281 272.433 C 121.926 272.512,122.896 272.511,123.436 272.429 C 123.975 272.347,123.447 272.282,122.262 272.284 C 121.077 272.286,120.636 272.353,121.281 272.433 M137.507 278.366 C 138.995 279.952,139.318 280.237,139.318 279.967 C 139.318 279.909,138.550 279.142,137.612 278.261 L 135.907 276.661 137.507 278.366 M221.198 278.325 C 221.191 278.450,221.421 279.097,221.709 279.761 C 221.998 280.426,222.235 280.727,222.235 280.431 C 222.237 279.913,221.224 277.858,221.198 278.325 M172.736 289.228 C 172.736 289.425,172.967 289.991,173.250 290.485 C 173.532 290.978,173.763 291.221,173.763 291.023 C 173.763 290.826,173.532 290.260,173.250 289.767 C 172.967 289.273,172.736 289.031,172.736 289.228 M144.113 294.255 C 144.112 296.032,144.173 296.805,144.248 295.971 C 144.323 295.138,144.324 293.684,144.250 292.740 C 144.176 291.796,144.114 292.478,144.113 294.255 M100.297 294.255 C 100.299 295.637,100.364 296.159,100.442 295.414 C 100.519 294.669,100.518 293.538,100.439 292.900 C 100.359 292.263,100.296 292.873,100.297 294.255 M226.431 295.691 C 226.726 297.011,226.932 297.298,226.924 296.379 C 226.921 296.001,226.755 295.449,226.555 295.153 C 226.288 294.759,226.255 294.905,226.431 295.691 M227.162 299.102 C 227.446 300.651,227.650 300.943,227.643 299.791 C 227.640 299.313,227.478 298.680,227.284 298.384 C 227.036 298.005,226.999 298.218,227.162 299.102 M277.649 303.591 C 277.653 304.381,277.726 304.661,277.812 304.215 C 277.898 303.768,277.895 303.122,277.805 302.779 C 277.715 302.435,277.645 302.801,277.649 303.591 M101.975 302.831 C 101.975 303.216,103.043 305.206,103.250 305.206 C 103.349 305.206,103.163 304.681,102.836 304.039 C 102.170 302.729,101.975 302.456,101.975 302.831 M278.384 310.233 C 278.384 311.320,278.451 311.764,278.534 311.221 C 278.616 310.678,278.616 309.789,278.534 309.246 C 278.451 308.703,278.384 309.147,278.384 310.233 M229.196 312.567 C 229.198 313.752,229.265 314.194,229.345 313.548 C 229.425 312.903,229.423 311.933,229.341 311.394 C 229.259 310.854,229.194 311.382,229.196 312.567 M256.816 312.747 C 256.816 313.438,256.890 313.721,256.980 313.375 C 257.070 313.030,257.070 312.464,256.980 312.118 C 256.890 311.773,256.816 312.056,256.816 312.747 M278.677 314.452 C 278.645 315.074,278.822 315.251,279.443 315.219 C 280.016 315.189,280.075 315.130,279.645 315.017 C 279.312 314.929,278.967 314.584,278.879 314.251 C 278.765 313.821,278.707 313.880,278.677 314.452 M316.876 314.901 L 315.799 315.175 316.966 315.218 C 317.608 315.241,318.133 315.099,318.133 314.901 C 318.133 314.704,318.092 314.561,318.043 314.585 C 317.994 314.608,317.469 314.751,316.876 314.901 M121.459 315.877 C 122.005 315.960,122.813 315.957,123.254 315.872 C 123.696 315.787,123.250 315.719,122.262 315.722 C 121.275 315.725,120.913 315.795,121.459 315.877 " stroke="none" fill="#d7936b" fill-rule="evenodd"></path><path id="path3" d="M172.468 75.661 C 171.156 75.905,171.557 75.027,165.605 90.664 C 163.576 95.996,153.589 122.606,152.939 124.417 C 152.583 125.404,150.585 130.731,148.498 136.254 C 144.036 148.065,144.188 147.049,146.768 147.790 C 154.300 149.952,166.749 154.998,176.080 159.670 C 179.019 161.142,181.554 162.214,181.714 162.053 C 181.874 161.892,182.963 159.013,184.135 155.655 C 185.307 152.298,187.806 145.350,189.689 140.215 C 191.572 135.081,194.035 128.294,195.162 125.135 C 198.701 115.214,198.506 115.251,201.638 123.913 C 202.737 126.955,204.096 130.655,204.658 132.136 C 205.690 134.856,206.802 137.926,211.483 150.987 C 212.899 154.937,214.598 159.623,215.259 161.400 C 217.153 166.490,223.417 184.096,225.863 191.203 C 228.481 198.811,228.823 199.677,229.483 200.379 C 244.251 216.062,256.713 235.376,265.281 255.861 C 269.982 267.099,274.192 280.897,276.120 291.382 C 277.607 299.473,278.377 304.900,278.821 310.413 C 278.948 311.993,279.130 313.568,279.227 313.914 C 279.435 314.660,317.056 314.916,317.056 314.171 C 317.056 313.966,316.343 311.987,315.471 309.772 C 312.689 302.702,309.527 294.461,306.760 287.074 C 305.281 283.124,303.769 279.165,303.400 278.276 C 302.805 276.843,298.115 264.494,296.173 259.246 C 295.771 258.160,295.309 256.948,295.146 256.553 C 294.984 256.158,294.258 254.300,293.533 252.424 C 292.808 250.548,291.089 246.104,289.712 242.549 C 287.455 236.719,286.072 233.085,282.946 224.776 C 282.389 223.294,280.374 218.043,278.468 213.106 C 276.562 208.169,274.275 202.190,273.385 199.820 C 272.496 197.451,270.824 193.088,269.669 190.126 C 268.515 187.163,266.164 181.023,264.444 176.481 C 262.725 171.939,260.347 165.718,259.159 162.657 C 257.972 159.596,256.471 155.637,255.825 153.860 C 255.179 152.083,253.835 148.528,252.839 145.961 C 251.842 143.393,249.061 136.122,246.658 129.803 C 244.254 123.483,241.487 116.212,240.508 113.645 C 239.528 111.077,238.433 108.169,238.075 107.181 C 237.401 105.329,236.039 101.744,229.827 85.475 C 227.832 80.252,226.001 75.849,225.757 75.692 C 225.319 75.411,173.977 75.380,172.468 75.661 M226.592 78.444 C 227.173 79.726,227.648 81.028,227.648 81.338 C 227.648 81.648,227.981 82.581,228.388 83.411 C 228.795 84.240,229.453 85.889,229.850 87.074 C 230.247 88.259,230.713 89.551,230.886 89.946 C 232.029 92.555,234.359 98.623,235.919 103.052 C 236.163 103.743,236.521 104.621,236.716 105.002 C 237.313 106.168,238.779 110.680,238.779 111.348 C 238.779 111.694,239.037 112.235,239.353 112.551 C 239.668 112.866,239.831 113.371,239.716 113.672 C 239.600 113.974,239.650 114.131,239.826 114.023 C 240.182 113.802,240.991 115.801,240.674 116.119 C 240.563 116.230,240.692 116.585,240.961 116.909 C 241.469 117.522,241.533 117.679,243.433 122.980 C 244.070 124.758,244.737 126.365,244.917 126.553 C 245.096 126.741,245.242 127.187,245.242 127.545 C 245.242 127.903,245.389 128.477,245.568 128.820 C 246.288 130.202,247.726 133.862,248.240 135.623 C 248.540 136.652,249.022 138.026,249.310 138.675 C 249.811 139.807,250.113 140.630,250.234 141.198 C 250.287 141.443,251.088 143.357,252.229 145.960 C 252.488 146.553,253.058 148.007,253.495 149.192 C 253.932 150.377,254.691 152.285,255.182 153.433 C 255.673 154.581,255.985 155.752,255.876 156.036 C 255.767 156.320,255.834 156.553,256.026 156.553 C 256.217 156.553,256.373 156.801,256.373 157.104 C 256.373 157.407,256.634 158.054,256.953 158.540 C 257.272 159.027,257.438 159.425,257.321 159.425 C 257.205 159.425,257.662 160.637,258.337 162.118 C 259.012 163.600,259.460 164.811,259.333 164.811 C 259.206 164.811,259.296 165.005,259.533 165.242 C 259.770 165.479,259.965 165.924,259.966 166.230 C 259.968 166.536,260.199 167.228,260.480 167.768 C 260.787 168.356,260.855 168.834,260.650 168.961 C 260.462 169.077,260.613 169.443,260.986 169.775 C 261.633 170.350,263.455 174.750,263.279 175.315 C 263.233 175.464,263.518 176.188,263.914 176.925 C 264.309 177.663,264.632 178.440,264.632 178.653 C 264.632 178.866,265.036 179.877,265.530 180.901 C 266.023 181.924,266.427 182.995,266.427 183.280 C 266.427 183.566,266.592 183.901,266.792 184.025 C 266.993 184.149,267.071 184.390,266.966 184.560 C 266.861 184.730,266.932 184.967,267.124 185.085 C 267.316 185.204,267.392 185.513,267.293 185.771 C 267.194 186.029,267.362 186.448,267.668 186.701 C 267.973 186.954,268.223 187.387,268.223 187.662 C 268.223 188.439,269.088 191.023,269.348 191.023 C 269.476 191.023,269.692 191.468,269.827 192.011 C 269.963 192.554,270.317 193.564,270.614 194.255 C 270.912 194.946,271.384 196.042,271.664 196.691 C 271.943 197.339,272.172 198.188,272.172 198.576 C 272.172 198.964,272.334 199.282,272.531 199.282 C 272.729 199.282,272.865 199.403,272.833 199.551 C 272.776 199.823,273.050 200.656,273.631 201.975 C 274.590 204.152,277.199 211.185,277.199 211.593 C 277.199 211.856,277.437 212.385,277.726 212.768 C 278.016 213.151,278.260 213.707,278.267 214.004 C 278.275 214.300,278.522 215.005,278.817 215.571 C 279.112 216.136,279.354 216.805,279.354 217.056 C 279.354 217.307,279.588 217.963,279.874 218.515 C 280.160 219.066,280.305 219.661,280.197 219.837 C 280.089 220.012,280.242 220.347,280.538 220.580 C 280.835 220.814,281.512 222.298,282.043 223.878 C 282.575 225.458,283.157 226.904,283.336 227.092 C 283.516 227.279,283.662 227.713,283.662 228.056 C 283.662 228.398,283.851 229.133,284.081 229.689 C 284.580 230.893,284.636 231.083,284.695 231.752 C 284.719 232.034,284.992 232.517,285.301 232.826 C 285.610 233.135,285.769 233.539,285.654 233.725 C 285.540 233.910,285.592 234.152,285.771 234.263 C 285.950 234.373,286.208 234.909,286.343 235.454 C 286.479 235.999,286.802 236.930,287.061 237.522 C 287.686 238.952,289.928 244.655,289.955 244.883 C 289.967 244.982,290.252 245.580,290.590 246.212 C 290.927 246.844,291.203 247.540,291.203 247.758 C 291.203 247.976,291.545 248.906,291.964 249.824 C 292.382 250.743,292.762 251.663,292.809 251.869 C 292.855 252.075,293.148 252.819,293.460 253.521 C 293.772 254.223,294.143 255.262,294.286 255.831 C 294.429 256.399,294.762 257.279,295.026 257.786 C 295.291 258.293,295.508 258.911,295.509 259.160 C 295.511 259.409,295.816 260.298,296.187 261.135 C 297.064 263.109,297.813 265.065,297.889 265.574 C 297.921 265.796,298.188 266.523,298.482 267.190 C 298.775 267.857,299.301 269.210,299.650 270.197 C 299.999 271.185,300.560 272.639,300.896 273.429 C 301.233 274.219,301.869 275.835,302.311 277.020 C 302.753 278.205,303.254 279.497,303.424 279.892 C 304.446 282.270,305.566 285.417,305.566 285.914 C 305.566 286.232,305.727 286.592,305.925 286.715 C 306.122 286.837,306.285 287.210,306.286 287.544 C 306.287 287.878,306.529 288.614,306.824 289.179 C 307.119 289.745,307.361 290.499,307.361 290.855 C 307.361 291.211,307.513 291.556,307.699 291.622 C 307.885 291.688,308.110 292.145,308.199 292.639 C 308.288 293.133,308.638 294.183,308.978 294.973 C 309.317 295.763,309.796 296.894,310.043 297.487 C 310.289 298.079,310.833 299.301,311.252 300.203 C 311.670 301.105,312.073 302.155,312.146 302.537 C 312.305 303.363,312.466 303.794,314.014 307.540 C 314.667 309.120,315.462 311.051,315.781 311.830 C 316.099 312.610,316.278 313.462,316.177 313.724 C 315.939 314.346,280.184 314.297,279.799 313.674 C 279.669 313.462,279.535 312.723,279.502 312.031 C 279.427 310.446,279.080 306.900,278.658 303.411 C 278.479 301.930,278.326 300.476,278.319 300.180 C 278.312 299.883,278.129 298.914,277.912 298.025 C 277.695 297.136,277.368 295.521,277.184 294.434 C 275.802 286.242,270.867 267.804,269.282 264.906 C 269.094 264.563,268.941 264.116,268.941 263.913 C 268.941 263.527,265.533 255.078,264.049 251.786 C 263.580 250.743,263.196 249.834,263.196 249.765 C 263.196 249.696,262.923 249.013,262.590 248.249 C 262.257 247.484,262.015 246.737,262.052 246.589 C 262.088 246.441,261.996 246.320,261.847 246.320 C 261.698 246.320,261.351 245.794,261.077 245.153 C 260.802 244.511,260.378 243.743,260.134 243.447 C 259.890 243.151,259.568 242.504,259.420 242.011 C 259.271 241.517,259.048 241.032,258.923 240.934 C 258.799 240.835,258.300 239.946,257.813 238.959 C 257.327 237.971,256.632 236.746,256.269 236.236 C 255.906 235.726,255.573 235.059,255.528 234.753 C 255.483 234.446,255.039 233.652,254.542 232.987 C 254.045 232.322,253.254 231.131,252.784 230.341 C 251.789 228.666,243.460 216.054,242.826 215.260 C 242.668 215.063,241.903 214.093,241.126 213.106 C 240.349 212.118,239.544 211.149,239.336 210.952 C 239.129 210.754,238.503 209.983,237.947 209.238 C 237.390 208.493,236.582 207.512,236.151 207.058 C 235.721 206.604,234.479 205.216,233.393 203.974 C 232.307 202.731,230.893 201.164,230.251 200.491 C 229.610 199.819,229.084 199.220,229.084 199.161 C 229.084 199.102,228.140 196.318,226.987 192.974 C 225.833 189.630,224.958 186.692,225.042 186.445 C 225.126 186.198,225.019 185.996,224.806 185.996 C 224.592 185.996,224.417 185.683,224.417 185.299 C 224.417 184.916,224.277 184.517,224.108 184.412 C 223.819 184.233,222.447 179.842,222.606 179.604 C 222.646 179.544,222.429 179.114,222.124 178.649 C 221.819 178.183,221.496 177.398,221.407 176.904 C 221.317 176.410,221.077 175.693,220.872 175.311 C 220.606 174.814,220.623 174.484,220.932 174.150 C 221.170 173.893,221.189 173.780,220.975 173.900 C 220.554 174.134,219.391 172.002,219.388 170.993 C 219.387 170.654,218.983 169.582,218.490 168.611 C 217.998 167.639,217.594 166.500,217.594 166.079 C 217.594 165.658,217.426 165.146,217.221 164.940 C 217.015 164.735,216.223 162.804,215.460 160.650 C 213.412 154.867,213.204 154.288,212.901 153.501 C 211.832 150.724,210.333 146.618,210.280 146.320 C 210.245 146.122,210.026 145.476,209.793 144.883 C 209.560 144.291,208.786 142.190,208.074 140.215 C 206.564 136.032,205.820 133.982,204.556 130.521 C 204.050 129.138,203.201 126.795,202.668 125.314 C 199.584 116.738,199.435 116.479,197.976 117.143 C 197.138 117.525,196.700 118.384,196.058 120.899 C 195.846 121.730,195.434 122.647,195.143 122.938 C 194.852 123.229,194.614 123.797,194.614 124.199 C 194.614 124.602,194.383 125.461,194.101 126.110 C 193.819 126.758,193.327 128.178,193.007 129.264 C 192.688 130.350,192.326 131.481,192.205 131.777 C 192.083 132.074,191.955 132.397,191.921 132.496 C 191.887 132.594,191.738 132.998,191.590 133.393 C 190.459 136.417,189.606 138.877,189.162 140.395 C 188.960 141.086,188.659 141.818,188.494 142.022 C 188.329 142.226,188.117 142.791,188.025 143.279 C 187.754 144.702,187.381 145.433,187.036 145.219 C 186.859 145.110,186.715 145.518,186.715 146.127 C 186.715 146.735,186.169 148.643,185.502 150.367 C 184.834 152.091,183.938 154.551,183.510 155.835 C 183.081 157.118,182.577 158.449,182.389 158.792 C 182.201 159.135,182.047 159.607,182.047 159.841 C 182.047 161.713,174.615 159.380,170.736 156.290 C 170.300 155.943,159.362 151.526,158.937 151.526 C 158.772 151.526,158.127 151.298,157.505 151.019 C 156.883 150.740,154.354 149.840,151.885 149.017 C 145.705 146.958,145.422 146.838,145.422 146.271 C 145.422 145.644,148.093 138.775,148.868 137.408 C 149.183 136.851,149.361 136.314,149.261 136.215 C 149.162 136.116,149.650 134.633,150.344 132.919 C 151.039 131.205,151.849 129.075,152.144 128.187 C 152.666 126.617,154.473 121.916,155.112 120.467 C 155.286 120.072,155.855 118.456,156.375 116.876 C 156.896 115.296,157.574 113.538,157.884 112.968 C 158.193 112.399,158.572 111.429,158.726 110.814 C 159.082 109.390,160.696 105.074,161.400 103.662 C 161.697 103.069,161.939 102.456,161.939 102.302 C 161.939 102.148,162.127 101.567,162.358 101.011 C 162.864 99.789,162.829 99.893,163.178 98.564 C 163.333 97.971,163.718 97.083,164.032 96.589 C 164.347 96.095,164.635 95.530,164.673 95.332 C 164.712 95.135,164.822 94.563,164.919 94.062 C 165.016 93.560,165.415 92.429,165.806 91.548 C 166.196 90.667,167.025 88.573,167.648 86.894 C 168.271 85.215,168.917 83.594,169.084 83.292 C 169.251 82.989,169.508 82.181,169.655 81.496 C 169.801 80.812,170.043 80.090,170.192 79.892 C 170.341 79.695,170.667 78.887,170.916 78.097 C 171.165 77.307,171.436 76.543,171.517 76.400 C 171.599 76.257,183.786 76.134,198.600 76.127 L 225.535 76.114 226.592 78.444 M103.680 162.496 C 103.183 163.015,103.356 188.020,103.860 188.408 C 104.107 188.597,106.086 188.949,108.259 189.190 C 110.431 189.431,113.259 189.847,114.542 190.115 C 115.826 190.382,118.250 190.872,119.928 191.203 C 177.959 202.645,223.618 253.114,229.645 312.478 C 229.760 313.613,230.004 314.548,230.187 314.556 C 230.371 314.564,232.217 314.570,234.291 314.570 C 236.364 314.570,242.206 314.564,247.271 314.556 L 256.482 314.542 256.258 310.862 C 255.829 303.791,254.257 295.064,251.585 284.919 C 235.976 225.670,187.902 179.705,126.930 165.734 C 122.075 164.622,119.654 164.164,112.522 163.011 C 109.246 162.482,103.988 162.175,103.680 162.496 M111.490 163.439 C 112.675 163.648,114.029 163.815,114.500 163.811 C 115.217 163.805,119.239 164.571,122.801 165.391 C 123.294 165.505,123.941 165.651,124.237 165.716 C 124.533 165.781,124.776 165.862,124.776 165.897 C 124.776 165.932,125.223 166.000,125.770 166.049 C 126.317 166.098,127.368 166.314,128.104 166.530 C 128.841 166.746,131.221 167.359,133.393 167.893 C 135.566 168.427,138.151 169.177,139.138 169.561 C 140.126 169.944,141.014 170.244,141.113 170.228 C 141.587 170.150,145.263 171.389,146.011 171.879 C 146.477 172.185,146.858 172.326,146.858 172.193 C 146.858 172.061,147.217 172.204,147.656 172.511 C 148.095 172.818,148.752 173.070,149.116 173.070 C 149.765 173.070,153.328 174.457,153.680 174.846 C 153.779 174.956,154.183 175.096,154.578 175.158 C 155.691 175.333,171.275 183.123,171.275 183.504 C 171.275 183.690,171.542 183.842,171.869 183.842 C 172.196 183.842,172.993 184.246,173.641 184.740 C 174.288 185.233,174.976 185.637,175.171 185.637 C 175.365 185.637,175.577 185.759,175.643 185.907 C 175.709 186.055,176.652 186.649,177.738 187.226 C 179.548 188.189,186.109 192.472,188.689 194.375 C 194.061 198.337,198.199 201.607,201.251 204.302 C 206.085 208.571,214.344 216.784,214.356 217.334 C 214.360 217.488,215.049 218.306,215.889 219.153 C 216.728 220.000,217.819 221.240,218.312 221.907 C 218.806 222.574,219.619 223.614,220.119 224.217 C 220.619 224.821,221.492 225.961,222.058 226.750 C 222.624 227.540,223.269 228.348,223.490 228.546 C 223.858 228.874,226.463 232.339,227.569 233.971 C 229.887 237.391,233.393 242.890,233.393 243.106 C 233.393 243.254,234.041 244.401,234.833 245.655 C 236.512 248.314,243.139 261.482,243.297 262.473 C 243.313 262.574,243.693 263.465,244.141 264.452 C 244.589 265.440,244.996 266.409,245.045 266.607 C 245.175 267.130,245.581 268.208,246.260 269.831 C 246.589 270.617,246.809 271.410,246.749 271.594 C 246.690 271.777,246.831 272.045,247.064 272.188 C 247.296 272.332,247.487 272.872,247.487 273.388 C 247.487 273.904,247.615 274.327,247.772 274.327 C 247.929 274.327,248.172 274.852,248.312 275.494 C 248.452 276.136,248.882 277.630,249.268 278.815 C 249.654 280.000,250.010 281.131,250.059 281.329 C 250.108 281.526,250.354 282.414,250.606 283.302 C 251.067 284.931,251.198 285.503,251.544 287.392 C 251.648 287.963,251.865 288.690,252.025 289.008 C 252.523 289.997,253.238 293.988,252.989 294.391 C 252.859 294.601,252.989 295.141,253.277 295.591 C 253.566 296.041,253.849 296.894,253.907 297.487 C 253.965 298.079,254.108 298.725,254.224 298.923 C 254.341 299.120,254.474 299.847,254.520 300.539 C 254.566 301.230,254.760 302.926,254.951 304.309 C 255.142 305.691,255.377 307.792,255.473 308.977 C 255.570 310.162,255.719 311.654,255.805 312.293 C 255.894 312.956,255.780 313.567,255.541 313.715 C 254.998 314.051,230.589 314.226,230.387 313.895 C 230.303 313.757,230.128 312.271,229.999 310.592 C 229.870 308.914,229.623 307.056,229.449 306.463 C 229.276 305.871,229.023 304.497,228.888 303.411 C 228.752 302.325,228.564 301.113,228.469 300.718 C 228.374 300.323,228.092 299.031,227.842 297.846 C 227.592 296.661,227.211 295.045,226.994 294.255 C 226.777 293.465,226.518 292.253,226.419 291.562 C 226.077 289.194,224.086 282.668,223.127 280.770 C 222.872 280.265,222.249 278.620,221.744 277.115 C 221.239 275.610,220.280 273.195,219.614 271.749 C 218.948 270.303,218.033 268.232,217.579 267.145 C 217.126 266.059,216.559 264.928,216.320 264.632 C 216.080 264.336,215.765 263.689,215.619 263.196 C 215.474 262.702,215.158 262.056,214.916 261.759 C 214.675 261.463,214.075 260.494,213.583 259.605 C 213.090 258.716,212.330 257.366,211.894 256.605 C 210.861 254.803,206.979 248.774,206.505 248.238 C 206.303 248.009,205.580 246.959,204.899 245.904 C 204.218 244.849,203.363 243.662,202.998 243.267 C 202.633 242.872,201.861 241.903,201.283 241.113 C 200.704 240.323,199.654 239.020,198.949 238.218 C 198.243 237.415,197.124 236.123,196.462 235.345 C 193.301 231.635,182.403 220.983,180.251 219.502 C 179.758 219.162,178.447 218.150,177.339 217.252 C 176.231 216.354,174.888 215.306,174.354 214.924 C 173.820 214.541,173.046 213.935,172.633 213.577 C 172.221 213.219,171.679 212.926,171.429 212.926 C 171.180 212.926,170.922 212.787,170.856 212.616 C 170.700 212.211,165.634 208.977,165.156 208.977 C 164.954 208.977,164.696 208.734,164.582 208.438 C 164.469 208.142,164.181 207.899,163.943 207.899 C 163.408 207.899,158.573 205.026,158.408 204.610 C 158.342 204.444,158.118 204.309,157.910 204.309 C 157.701 204.309,156.139 203.630,154.439 202.801 C 152.738 201.971,150.823 201.102,150.183 200.869 C 149.543 200.636,148.573 200.150,148.028 199.788 C 147.484 199.426,146.870 199.103,146.666 199.070 C 146.331 199.015,143.503 197.905,141.652 197.101 C 140.163 196.454,134.008 194.326,131.418 193.561 C 129.937 193.124,128.229 192.617,127.623 192.434 C 127.016 192.250,126.177 192.101,125.759 192.101 C 125.340 192.101,124.914 191.966,124.813 191.802 C 124.634 191.512,119.661 190.458,119.120 190.596 C 118.972 190.633,118.851 190.522,118.851 190.348 C 118.851 190.175,117.841 189.936,116.607 189.819 C 115.373 189.702,113.959 189.534,113.465 189.446 C 112.971 189.358,110.734 189.055,108.493 188.773 C 106.252 188.491,104.302 188.071,104.158 187.839 C 103.942 187.489,103.996 174.778,104.242 168.223 C 104.279 167.235,104.214 165.746,104.098 164.914 C 103.771 162.559,105.042 162.306,111.490 163.439 M103.676 211.345 C 103.530 211.491,103.411 217.394,103.411 224.464 C 103.411 238.718,103.297 238.061,105.768 238.061 C 111.211 238.061,126.613 243.395,135.495 248.356 C 158.668 261.298,175.977 285.548,180.383 311.243 C 180.665 312.885,180.997 314.330,181.121 314.454 C 181.386 314.720,206.800 314.684,207.066 314.418 C 207.414 314.070,205.652 303.183,204.470 298.384 C 195.861 263.431,169.668 232.945,136.804 219.629 C 135.916 219.269,134.865 218.825,134.470 218.641 C 127.831 215.560,104.895 210.126,103.676 211.345 M111.490 212.592 C 114.151 213.049,119.089 214.192,121.724 214.962 C 122.810 215.279,124.264 215.702,124.955 215.903 C 125.646 216.103,127.020 216.551,128.007 216.899 C 128.995 217.246,131.014 217.957,132.496 218.480 C 133.977 219.002,135.673 219.658,136.266 219.938 C 137.618 220.578,139.083 221.113,139.318 221.054 C 139.417 221.029,140.007 221.371,140.630 221.815 C 141.253 222.258,141.904 222.621,142.076 222.621 C 142.810 222.621,152.317 227.909,152.543 228.443 C 152.609 228.598,152.824 228.725,153.021 228.725 C 153.570 228.725,160.880 233.808,164.097 236.426 C 171.293 242.283,175.476 246.408,181.836 253.917 C 183.428 255.797,187.992 262.115,188.974 263.800 C 189.608 264.886,190.388 266.204,190.710 266.729 C 193.303 270.970,198.923 282.096,198.923 282.989 C 198.923 283.267,199.238 284.083,199.624 284.802 C 200.010 285.522,200.378 286.489,200.441 286.952 C 200.505 287.414,200.681 287.990,200.833 288.233 C 201.671 289.569,204.951 301.698,205.224 304.473 C 205.293 305.173,205.532 306.795,205.755 308.079 C 206.334 311.419,206.416 313.768,205.957 313.925 C 205.742 313.999,200.133 314.086,193.492 314.119 L 181.419 314.178 180.818 310.859 C 179.982 306.242,176.799 295.394,175.946 294.255 C 175.798 294.057,175.471 293.250,175.219 292.460 C 174.773 291.059,170.278 281.865,169.865 281.508 C 169.751 281.409,169.416 280.844,169.120 280.251 C 168.824 279.659,168.325 278.889,168.011 278.540 C 167.697 278.191,167.212 277.469,166.934 276.935 C 166.655 276.401,166.221 275.717,165.968 275.415 C 165.715 275.113,164.676 273.734,163.659 272.352 C 162.641 270.969,161.717 269.758,161.604 269.659 C 161.492 269.560,160.764 268.671,159.986 267.684 C 157.674 264.748,152.634 259.902,147.995 256.153 C 147.534 255.781,146.857 255.223,146.492 254.915 C 144.877 253.553,140.618 250.661,138.869 249.739 C 138.128 249.348,137.522 248.904,137.522 248.751 C 137.522 248.599,137.303 248.474,137.034 248.474 C 136.765 248.474,135.971 248.084,135.268 247.607 C 134.565 247.130,133.896 246.834,133.781 246.949 C 133.667 247.063,133.573 246.969,133.573 246.738 C 133.573 246.508,133.362 246.320,133.105 246.320 C 132.847 246.320,131.837 245.927,130.860 245.447 C 122.949 241.560,113.860 238.661,105.925 237.493 C 105.233 237.391,104.500 237.254,104.296 237.187 C 104.004 237.091,103.808 213.805,104.085 212.116 C 104.138 211.794,108.451 212.071,111.490 212.592 M117.056 273.456 C 105.652 276.451,98.571 288.056,101.406 299.102 C 107.677 323.535,143.627 318.966,143.627 293.736 C 143.627 280.078,130.370 269.960,117.056 273.456 M129.040 274.343 C 135.372 276.422,138.552 279.548,142.246 287.329 C 142.406 287.667,142.442 288.192,142.326 288.496 C 142.209 288.800,142.276 289.048,142.475 289.048 C 143.134 289.048,143.026 298.421,142.346 300.225 C 139.341 308.192,134.287 312.634,126.273 314.352 C 110.951 317.637,97.550 302.820,102.239 287.777 C 105.615 276.948,118.025 270.727,129.040 274.343 " stroke="none" fill="#e16d2d" fill-rule="evenodd"></path><path id="path4" d="M202.394 75.399 C 215.264 75.500,225.885 75.676,225.998 75.788 C 226.176 75.966,230.668 87.604,236.302 102.482 C 237.904 106.713,238.420 107.875,238.420 107.256 C 238.420 107.133,236.548 102.138,234.260 96.155 C 231.973 90.173,229.298 83.102,228.318 80.441 C 227.337 77.781,226.341 75.481,226.104 75.330 C 225.867 75.179,215.171 75.091,202.334 75.135 L 178.995 75.214 202.394 75.399 M167.729 84.246 C 167.301 85.365,167.011 86.341,167.085 86.415 C 167.159 86.489,167.570 85.634,167.998 84.515 C 168.426 83.396,168.716 82.420,168.642 82.346 C 168.568 82.272,168.157 83.127,167.729 84.246 M166.439 87.507 C 164.966 91.198,163.007 96.699,163.124 96.816 C 163.205 96.897,163.553 96.193,163.896 95.250 C 164.240 94.308,165.070 92.095,165.741 90.333 C 166.412 88.570,166.901 87.069,166.828 86.996 C 166.755 86.923,166.580 87.153,166.439 87.507 M162.160 98.964 C 161.842 99.897,161.644 100.723,161.720 100.798 C 161.796 100.874,162.118 100.173,162.436 99.240 C 162.754 98.308,162.952 97.482,162.876 97.406 C 162.800 97.330,162.478 98.031,162.160 98.964 M159.146 106.894 C 158.947 107.447,155.694 116.124,151.918 126.176 C 148.141 136.228,145.111 144.512,145.184 144.585 C 145.257 144.658,146.971 140.312,148.993 134.926 C 151.015 129.541,154.273 120.869,156.233 115.655 C 158.192 110.441,159.731 106.111,159.652 106.032 C 159.573 105.953,159.345 106.341,159.146 106.894 M238.424 107.989 C 238.427 108.137,239.329 110.601,240.429 113.465 C 241.529 116.329,244.363 123.761,246.725 129.982 C 252.610 145.476,252.880 146.163,253.030 146.012 C 253.168 145.874,249.418 135.788,243.464 120.287 C 241.530 115.251,239.663 110.364,239.315 109.425 C 238.727 107.843,238.414 107.338,238.424 107.989 M196.844 120.532 C 194.844 125.764,193.120 130.762,193.264 130.906 C 193.343 130.986,194.474 128.104,195.777 124.503 C 198.135 117.987,198.889 115.180,196.844 120.532 M199.662 119.622 C 200.432 121.575,201.371 123.324,200.887 121.903 C 199.883 118.958,199.532 118.108,199.244 117.930 C 199.063 117.818,199.251 118.579,199.662 119.622 M192.322 133.076 C 192.004 134.008,191.806 134.834,191.882 134.910 C 191.958 134.986,192.280 134.285,192.598 133.352 C 192.916 132.419,193.113 131.593,193.038 131.517 C 192.962 131.442,192.639 132.143,192.322 133.076 M188.877 142.450 C 187.444 146.355,185.312 152.298,184.138 155.655 C 182.965 159.013,181.874 161.892,181.714 162.053 C 181.554 162.214,179.019 161.142,176.080 159.670 C 167.079 155.163,149.120 147.890,147.134 147.949 C 146.884 147.956,149.506 148.982,152.962 150.228 C 163.575 154.056,168.864 156.391,181.740 162.933 C 181.867 162.998,182.619 161.145,183.410 158.815 C 184.201 156.485,186.407 150.318,188.312 145.110 C 190.218 139.903,191.710 135.576,191.629 135.495 C 191.548 135.414,190.310 138.544,188.877 142.450 M144.394 146.154 C 144.010 147.254,144.805 148.004,146.253 147.907 C 146.487 147.891,146.218 147.711,145.655 147.506 C 144.769 147.183,144.659 146.993,144.838 146.098 C 145.108 144.745,144.874 144.775,144.394 146.154 M253.142 146.547 C 253.142 146.735,257.463 158.218,261.503 168.761 C 262.978 172.612,264.945 177.783,265.875 180.251 C 266.804 182.720,268.510 187.163,269.666 190.126 C 270.822 193.088,272.513 197.519,273.423 199.972 C 274.943 204.066,275.724 205.877,275.752 205.365 C 275.764 205.150,272.774 197.225,266.617 181.149 C 264.499 175.619,262.070 169.237,261.220 166.966 C 256.274 153.750,253.142 145.833,253.142 146.547 M212.055 153.321 C 212.187 153.815,212.445 154.461,212.628 154.758 C 212.859 155.132,212.887 155.022,212.721 154.399 C 212.589 153.905,212.331 153.259,212.148 152.962 C 211.916 152.588,211.888 152.697,212.055 153.321 M213.669 157.810 C 213.657 158.007,214.121 159.438,214.701 160.989 C 215.700 163.665,216.175 164.617,216.144 163.884 C 216.122 163.367,213.694 157.408,213.669 157.810 M103.483 162.370 C 103.170 162.682,103.074 164.828,103.131 170.180 L 103.210 177.558 103.400 170.018 L 103.591 162.478 105.745 162.269 L 107.899 162.060 105.907 161.999 C 104.756 161.964,103.732 162.121,103.483 162.370 M109.695 162.657 C 110.682 162.798,112.460 163.013,113.645 163.134 L 115.799 163.355 113.285 162.848 C 111.903 162.570,110.126 162.355,109.336 162.371 C 107.948 162.398,107.960 162.408,109.695 162.657 M117.235 163.734 C 117.828 163.885,118.716 164.011,119.210 164.015 L 120.108 164.022 119.210 163.734 C 118.716 163.576,117.828 163.450,117.235 163.453 L 116.158 163.460 117.235 163.734 M125.494 165.370 C 130.905 166.607,131.679 166.747,131.372 166.440 C 131.120 166.189,121.552 164.090,120.780 164.117 C 120.410 164.129,122.531 164.694,125.494 165.370 M132.855 167.121 C 133.546 167.401,134.434 167.631,134.829 167.634 L 135.548 167.639 134.829 167.349 C 134.434 167.189,133.546 166.959,132.855 166.836 L 131.598 166.613 132.855 167.121 M139.842 169.138 C 141.612 169.703,143.123 170.102,143.201 170.025 C 143.362 169.863,137.481 168.026,136.965 168.077 C 136.778 168.095,138.073 168.573,139.842 169.138 M217.635 168.761 C 217.642 169.057,217.958 169.946,218.338 170.736 C 218.718 171.526,218.928 171.779,218.805 171.298 C 218.468 169.983,217.621 168.146,217.635 168.761 M219.031 172.505 C 219.031 173.020,220.926 178.117,221.066 177.977 C 221.142 177.900,220.778 176.643,220.255 175.184 C 219.331 172.602,219.031 171.946,219.031 172.505 M156.912 175.583 C 157.603 175.962,158.330 176.272,158.528 176.272 C 158.725 176.272,158.321 175.962,157.630 175.583 C 156.939 175.205,156.212 174.895,156.014 174.895 C 155.817 174.895,156.221 175.205,156.912 175.583 M165.414 179.683 C 172.552 183.364,180.304 187.895,184.650 190.927 C 186.180 191.995,187.433 192.787,187.433 192.689 C 187.433 191.566,161.076 176.267,159.216 176.309 C 159.035 176.313,161.824 177.831,165.414 179.683 M103.471 188.510 C 103.596 188.894,104.206 189.059,105.594 189.086 C 107.295 189.120,107.337 189.105,105.932 188.972 C 105.047 188.888,104.091 188.629,103.809 188.395 C 103.398 188.057,103.330 188.080,103.471 188.510 M111.311 189.929 C 113.384 190.304,115.323 190.605,115.619 190.598 C 116.793 190.570,112.070 189.614,109.877 189.436 C 107.987 189.283,108.261 189.377,111.311 189.929 M121.005 191.755 C 125.729 192.834,126.262 192.928,125.974 192.641 C 125.726 192.392,117.793 190.657,117.091 190.697 C 116.775 190.716,118.537 191.192,121.005 191.755 M187.792 192.933 C 187.792 193.019,188.963 193.958,190.395 195.019 C 191.827 196.080,193.281 197.159,193.627 197.417 C 193.972 197.675,194.255 197.804,194.255 197.703 C 194.255 197.601,193.003 196.571,191.472 195.414 C 188.487 193.155,187.792 192.687,187.792 192.933 M129.787 193.914 C 130.964 194.283,131.990 194.521,132.067 194.444 C 132.233 194.278,128.588 193.163,128.032 193.210 C 127.821 193.229,128.611 193.545,129.787 193.914 M136.625 196.195 C 163.635 205.877,186.073 222.217,202.709 244.320 C 203.834 245.815,204.836 247.038,204.935 247.038 C 205.034 247.038,204.961 246.836,204.773 246.589 C 204.585 246.342,203.643 245.090,202.680 243.806 C 186.338 222.031,162.556 204.752,136.658 195.838 C 134.702 195.165,132.925 194.622,132.709 194.632 C 132.493 194.642,134.255 195.345,136.625 196.195 M194.614 197.950 C 194.614 198.034,196.350 199.539,198.471 201.295 C 228.886 226.471,250.290 264.954,255.465 303.770 C 256.204 309.314,256.403 310.144,256.155 306.643 C 253.995 276.203,235.242 237.126,210.897 212.334 C 205.661 207.002,194.614 197.244,194.614 197.950 M229.816 200.990 C 229.824 201.137,230.556 202.065,231.443 203.052 C 232.330 204.039,234.465 206.531,236.187 208.590 C 240.777 214.076,242.226 215.517,238.563 210.952 C 235.005 206.517,229.795 200.584,229.816 200.990 M275.969 206.463 C 276.101 206.957,276.359 207.603,276.542 207.899 C 276.773 208.274,276.801 208.164,276.634 207.540 C 276.502 207.047,276.245 206.400,276.062 206.104 C 275.830 205.730,275.802 205.839,275.969 206.463 M276.851 208.665 C 276.845 208.789,277.987 211.859,279.389 215.487 C 281.634 221.297,283.239 225.527,284.453 228.833 C 284.657 229.387,284.897 229.765,284.987 229.674 C 285.078 229.584,283.423 225.011,281.309 219.512 C 277.693 210.105,276.877 208.121,276.851 208.665 M105.027 211.113 C 106.135 211.413,108.675 211.596,108.408 211.356 C 108.326 211.282,107.289 211.131,106.104 211.021 C 104.687 210.889,104.319 210.920,105.027 211.113 M103.160 213.645 C 103.160 214.731,103.227 215.175,103.309 214.632 C 103.392 214.089,103.392 213.200,103.309 212.657 C 103.227 212.114,103.160 212.558,103.160 213.645 M117.235 213.285 C 117.630 213.455,118.196 213.594,118.492 213.594 C 118.831 213.594,118.765 213.480,118.312 213.285 C 117.917 213.116,117.352 212.977,117.056 212.977 C 116.716 212.977,116.783 213.091,117.235 213.285 M243.116 217.233 C 243.946 218.417,244.871 219.589,245.172 219.837 C 245.472 220.084,244.864 219.116,243.820 217.684 C 241.535 214.548,240.986 214.198,243.116 217.233 M127.828 216.338 C 129.467 216.969,130.112 216.960,128.725 216.325 C 128.133 216.053,127.406 215.836,127.110 215.842 C 126.813 215.849,127.136 216.071,127.828 216.338 M140.784 221.323 C 141.149 221.661,148.294 225.122,148.294 224.962 C 148.294 224.763,141.271 221.185,140.880 221.185 C 140.745 221.185,140.702 221.247,140.784 221.323 M248.315 224.686 C 250.430 227.943,251.466 229.443,251.598 229.443 C 251.785 229.443,251.599 229.130,249.634 226.122 C 248.763 224.789,247.965 223.698,247.862 223.698 C 247.758 223.698,247.962 224.143,248.315 224.686 M150.449 226.373 C 150.449 226.472,150.934 226.803,151.526 227.110 C 152.118 227.416,152.603 227.586,152.603 227.487 C 152.603 227.388,152.118 227.057,151.526 226.750 C 150.934 226.444,150.449 226.274,150.449 226.373 M155.117 229.199 C 155.117 229.285,156.473 230.277,158.131 231.403 C 178.218 245.047,194.115 266.225,201.993 289.835 C 202.763 292.144,203.457 293.970,203.535 293.892 C 203.612 293.815,203.073 291.926,202.336 289.694 C 195.499 268.978,182.222 249.946,164.874 235.992 C 160.869 232.771,155.117 228.766,155.117 229.199 M285.283 230.880 C 285.888 232.865,287.700 237.375,287.838 237.237 C 287.991 237.084,285.525 230.475,285.197 230.162 C 285.094 230.063,285.133 230.386,285.283 230.880 M287.971 237.779 C 287.971 238.052,289.386 241.811,292.269 249.192 C 293.618 252.648,294.823 255.782,294.946 256.156 C 295.069 256.529,295.255 256.750,295.359 256.645 C 295.464 256.541,293.921 252.286,291.931 247.190 C 288.651 238.790,287.971 237.174,287.971 237.779 M106.463 238.441 C 108.282 238.817,109.752 238.800,108.259 238.420 C 107.666 238.269,106.697 238.145,106.104 238.145 C 105.198 238.144,105.256 238.191,106.463 238.441 M114.722 240.215 C 115.795 240.677,116.692 240.677,115.978 240.215 C 115.682 240.024,115.117 239.876,114.722 239.887 L 114.004 239.907 114.722 240.215 M120.826 242.137 C 136.646 247.734,149.001 256.308,161.003 270.018 L 162.732 271.993 160.989 269.676 C 154.178 260.622,141.140 250.592,128.814 244.924 C 125.642 243.466,117.678 240.561,116.942 240.594 C 116.708 240.604,118.456 241.299,120.826 242.137 M258.923 242.549 C 258.923 242.747,259.634 244.282,260.503 245.961 C 261.372 247.639,262.082 248.851,262.082 248.654 C 262.082 248.456,261.372 246.921,260.503 245.242 C 259.634 243.564,258.923 242.352,258.923 242.549 M207.417 251.077 C 209.523 254.349,211.070 256.479,210.222 254.937 C 209.444 253.524,205.386 247.397,205.228 247.397 C 205.129 247.397,206.114 249.053,207.417 251.077 M262.837 250.704 C 262.837 251.092,263.928 253.501,264.103 253.501 C 264.202 253.501,264.033 252.903,263.728 252.173 C 263.189 250.885,262.837 250.303,262.837 250.704 M211.131 256.919 C 211.131 257.022,211.517 257.717,211.989 258.464 C 212.460 259.212,213.432 260.986,214.148 262.407 C 215.332 264.760,216.150 265.920,215.518 264.351 C 214.604 262.083,211.131 256.199,211.131 256.919 M295.603 257.630 C 295.843 258.504,297.094 261.850,300.708 271.275 C 304.198 280.376,311.971 300.756,312.460 302.083 C 312.663 302.636,312.901 303.017,312.988 302.930 C 313.076 302.843,312.557 301.259,311.836 299.411 C 311.115 297.563,309.183 292.496,307.543 288.151 C 305.903 283.806,303.316 277.020,301.794 273.070 C 300.273 269.120,298.308 263.953,297.428 261.588 C 295.980 257.698,295.093 255.774,295.603 257.630 M217.620 269.120 C 217.620 269.318,217.851 269.883,218.133 270.377 C 218.415 270.871,218.646 271.113,218.646 270.916 C 218.646 270.718,218.415 270.153,218.133 269.659 C 217.851 269.165,217.620 268.923,217.620 269.120 M164.273 274.538 C 165.986 276.987,167.438 278.750,166.761 277.558 C 166.051 276.307,163.298 272.526,162.934 272.301 C 162.716 272.166,163.319 273.173,164.273 274.538 M219.056 272.352 C 219.056 272.549,219.287 273.115,219.569 273.609 C 219.851 274.102,220.082 274.345,220.082 274.147 C 220.082 273.950,219.851 273.384,219.569 272.890 C 219.287 272.397,219.056 272.154,219.056 272.352 M117.056 273.109 C 110.744 274.803,102.349 281.739,102.335 285.270 C 102.335 285.463,102.940 284.596,103.680 283.344 C 111.911 269.427,133.597 269.529,141.000 283.520 C 148.806 298.275,139.613 314.007,122.442 315.279 L 118.671 315.559 122.801 315.457 C 142.082 314.983,151.260 292.417,137.717 278.784 C 132.488 273.520,124.103 271.217,117.056 273.109 M220.481 275.632 C 220.473 275.856,220.703 276.583,220.991 277.248 C 221.280 277.912,221.522 278.273,221.530 278.048 C 221.538 277.824,221.308 277.097,221.019 276.433 C 220.731 275.768,220.489 275.408,220.481 275.632 M167.531 279.264 C 168.601 280.895,173.070 289.197,173.070 289.555 C 173.070 289.737,173.161 289.795,173.273 289.684 C 173.640 289.316,167.657 278.276,167.090 278.276 C 166.976 278.276,167.175 278.721,167.531 279.264 M274.029 282.944 C 274.047 283.877,274.612 285.410,274.625 284.560 C 274.631 284.165,274.496 283.519,274.327 283.124 C 274.138 282.684,274.022 282.614,274.029 282.944 M101.657 286.929 C 101.437 287.561,101.268 288.256,101.282 288.474 C 101.296 288.691,101.539 288.237,101.822 287.464 C 102.105 286.691,102.274 285.996,102.197 285.920 C 102.121 285.843,101.878 286.297,101.657 286.929 M224.467 287.253 C 224.467 287.549,224.606 288.115,224.776 288.510 C 224.970 288.963,225.084 289.029,225.084 288.689 C 225.084 288.393,224.945 287.828,224.776 287.433 C 224.581 286.980,224.467 286.914,224.467 287.253 M275.454 289.408 C 275.454 289.704,275.593 290.269,275.763 290.664 C 275.958 291.117,276.072 291.183,276.072 290.844 C 276.072 290.548,275.933 289.982,275.763 289.587 C 275.569 289.134,275.454 289.068,275.454 289.408 M174.163 291.921 C 174.595 293.007,175.190 294.591,175.486 295.441 C 175.781 296.291,176.095 296.915,176.182 296.828 C 176.382 296.628,174.177 290.791,173.717 290.305 C 173.531 290.108,173.731 290.835,174.163 291.921 M100.594 294.052 C 100.432 302.923,106.936 312.379,114.542 314.332 C 115.036 314.459,114.470 314.097,113.285 313.528 C 105.656 309.866,101.503 303.636,100.916 294.973 L 100.649 291.023 100.594 294.052 M276.194 293.178 C 276.194 293.573,276.323 294.300,276.481 294.794 C 276.709 295.504,276.769 295.542,276.769 294.973 C 276.769 294.578,276.639 293.851,276.481 293.357 C 276.254 292.646,276.194 292.609,276.194 293.178 M203.605 294.644 C 203.639 295.433,205.704 303.166,205.723 302.579 C 205.746 301.884,203.997 294.721,203.741 294.466 C 203.659 294.383,203.597 294.463,203.605 294.644 M176.470 297.966 C 177.173 300.249,178.406 303.546,178.429 303.205 C 178.464 302.708,176.736 297.617,176.438 297.338 C 176.314 297.222,176.328 297.505,176.470 297.966 M205.745 303.574 C 205.745 303.729,206.084 306.192,206.497 309.045 C 206.911 311.899,207.168 314.317,207.067 314.417 C 206.967 314.517,201.123 314.617,194.081 314.640 C 179.846 314.685,180.835 314.874,180.500 312.046 C 180.252 309.957,178.797 303.669,178.605 303.861 C 178.529 303.937,178.854 305.766,179.327 307.924 C 179.801 310.083,180.293 312.617,180.421 313.555 L 180.654 315.260 194.097 315.260 L 207.540 315.260 207.540 314.335 C 207.540 313.187,206.099 303.646,205.894 303.441 C 205.812 303.359,205.745 303.419,205.745 303.574 M313.106 303.549 C 313.106 304.033,315.367 309.529,315.508 309.388 C 315.585 309.310,315.143 307.974,314.525 306.419 C 313.439 303.682,313.106 303.009,313.106 303.549 M278.360 307.361 C 278.360 308.052,278.434 308.335,278.524 307.989 C 278.614 307.644,278.614 307.078,278.524 306.732 C 278.434 306.387,278.360 306.670,278.360 307.361 M229.168 309.515 C 229.168 310.206,229.242 310.489,229.332 310.144 C 229.422 309.798,229.422 309.232,229.332 308.887 C 229.242 308.541,229.168 308.824,229.168 309.515 M256.426 311.939 L 256.373 314.542 247.217 314.556 C 242.181 314.564,236.364 314.570,234.291 314.570 C 232.217 314.570,230.370 314.564,230.185 314.556 C 230.001 314.548,229.783 314.098,229.701 313.555 C 229.557 312.605,229.549 312.610,229.497 313.696 C 229.460 314.470,229.639 314.900,230.067 315.064 C 230.845 315.362,256.705 315.245,256.872 314.942 C 256.938 314.821,256.877 313.510,256.736 312.029 L 256.479 309.336 256.426 311.939 M315.619 309.981 C 315.619 310.105,315.943 311.027,316.338 312.029 C 316.732 313.031,317.056 314.006,317.056 314.196 C 317.056 314.414,310.052 314.542,298.212 314.542 L 279.367 314.542 279.187 313.734 C 279.088 313.290,278.944 312.361,278.869 311.670 C 278.793 310.978,278.760 311.339,278.795 312.470 C 278.831 313.601,278.984 314.652,279.137 314.804 C 279.455 315.122,317.247 315.189,317.564 314.872 C 317.679 314.757,317.353 313.626,316.840 312.358 C 315.936 310.127,315.619 309.509,315.619 309.981 M116.158 314.901 C 116.553 315.071,117.280 315.205,117.774 315.199 L 118.671 315.189 117.774 314.901 C 117.280 314.743,116.553 314.609,116.158 314.603 L 115.440 314.593 116.158 314.901 " stroke="none" fill="#cf7a4a" fill-rule="evenodd"></path></g></svg>